<?xml version="1.0" encoding="UTF-8" standalone="no"?>
<!-- Created with Inkscape (http://www.inkscape.org/) -->

<svg
   version="1.1"
   id="svg1158"
   width="100"
   height="112.417"
   viewBox="0 0 99.999999 112.417"
   sodipodi:docname="Logo.svg"
   xml:space="preserve"
   inkscape:version="1.2.1 (9c6d41e410, 2022-07-14)"
   xmlns:inkscape="http://www.inkscape.org/namespaces/inkscape"
   xmlns:sodipodi="http://sodipodi.sourceforge.net/DTD/sodipodi-0.dtd"
   xmlns="http://www.w3.org/2000/svg"
   xmlns:svg="http://www.w3.org/2000/svg"><defs
     id="defs1162" /><sodipodi:namedview
     id="namedview1160"
     pagecolor="#ffffff"
     bordercolor="#000000"
     borderopacity="0.25"
     inkscape:showpageshadow="2"
     inkscape:pageopacity="0"
     inkscape:pagecheckerboard="0"
     inkscape:deskcolor="#d1d1d1"
     showgrid="false"
     inkscape:zoom="1.2502642"
     inkscape:cx="326.33103"
     inkscape:cy="289.5388"
     inkscape:window-width="1920"
     inkscape:window-height="1017"
     inkscape:window-x="-8"
     inkscape:window-y="-8"
     inkscape:window-maximized="1"
     inkscape:current-layer="g1164" /><g
     inkscape:groupmode="layer"
     inkscape:label="Image"
     id="g1164"><g
       id="g17256"
       transform="matrix(0.20679373,0,0,0.20679373,-6.4840372,-0.26700111)"><path
         style="fill:#ec1c24;fill-opacity:1;stroke:#ec1c24;stroke-width:0;stroke-miterlimit:1.5;stroke-opacity:1"
         d="m 412.47512,82.989895 c -2.25169,-1.255256 -3.37279,-2.689389 -4.06657,-5.202037 -0.85355,-3.091292 -0.0783,-5.750852 2.39821,-8.227366 l 1.94398,-1.943988 h 9.41154 9.41153 l 0.22832,-16.107976 0.22832,-16.107976 2.49391,-2.421547 c 2.13049,-2.068666 2.9212,-2.421547 5.42604,-2.421547 3.67605,0 6.53501,1.630408 7.06138,4.026966 0.22039,1.003454 0.67004,1.824463 0.99922,1.824463 0.35189,0 0.5985,8.438569 0.5985,20.479998 0,12.04143 -0.24661,20.479999 -0.5985,20.479999 -0.32918,0 -0.79513,0.895259 -1.03546,1.989464 -0.27145,1.235886 -1.0059,2.205776 -1.93898,2.560531 -0.82611,0.314087 -1.69399,0.881685 -1.92863,1.26133 -0.6119,0.990084 -28.82988,0.814772 -30.63281,-0.190314 z"
         id="path1924" /><path
         style="fill:#ec1c24;fill-opacity:1;stroke:#ec1c24;stroke-width:0;stroke-miterlimit:1.5;stroke-opacity:1"
         d="m 430.40505,149.5365 c 0,-0.35759 -1.2993,-0.65016 -2.88734,-0.65016 -1.58804,0 -3.05551,-0.2721 -3.26104,-0.60465 -0.20554,-0.33257 -1.97823,-0.80513 -3.93932,-1.05016 -1.9611,-0.24502 -3.56563,-0.70436 -3.56563,-1.02074 0,-0.31638 -0.56787,-0.57524 -1.26195,-0.57524 -0.69407,0 -1.42226,-0.25941 -1.61821,-0.57646 -0.19595,-0.31705 -1.36221,-0.76517 -2.59169,-0.99582 -1.22948,-0.23065 -2.32985,-0.62953 -2.44527,-0.8864 -0.32794,-0.72982 -4.20241,-2.74259 -5.27935,-2.74259 -0.53234,0 -1.13631,-0.43886 -1.34213,-0.97524 -0.20583,-0.53638 -0.77693,-0.97524 -1.26912,-0.97524 -0.49218,0 -1.42442,-0.58514 -2.07164,-1.30032 -0.64723,-0.71517 -1.55575,-1.30031 -2.01894,-1.30031 -0.46319,0 -1.07613,-0.3928 -1.36209,-0.8729 -0.28596,-0.48009 -1.35581,-1.41197 -2.37745,-2.07084 -2.62134,-1.69056 -10.82057,-10.15161 -10.82057,-11.16611 0,-0.46409 -0.26871,-0.8438 -0.59713,-0.8438 -0.32842,0 -1.26682,-1.09715 -2.08532,-2.4381 -0.81851,-1.34095 -1.72008,-2.53562 -2.00351,-2.65481 -0.28342,-0.1192 -0.51531,-0.60682 -0.51531,-1.0836 0,-0.47678 -0.21943,-0.9644 -0.48762,-1.0836 -0.26819,-0.11919 -1.46081,-2.26472 -2.65026,-4.76783 -1.18946,-2.50311 -2.43289,-5.05914 -2.76318,-5.68007 -0.33029,-0.62092 -0.60053,-1.57178 -0.60053,-2.11301 0,-0.54123 -0.27464,-0.98406 -0.61032,-0.98406 -0.33567,0 -0.81514,-1.389716 -1.06547,-3.088255 -0.25034,-1.69854 -0.67812,-3.23454 -0.95063,-3.413333 -0.57333,-0.376156 -2.06477,-13.080855 -2.09891,-17.879364 -0.0317,-4.447918 1.51659,-17.478795 2.1243,-17.879364 0.27125,-0.178794 0.70233,-1.86108 0.95796,-3.738413 0.25563,-1.877333 0.72989,-3.413333 1.05392,-3.413333 0.32404,0 0.58915,-0.585143 0.58915,-1.300317 0,-0.715175 0.26686,-1.300318 0.59302,-1.300318 0.32615,0 0.79072,-1.170285 1.03238,-2.600635 0.24166,-1.430349 0.70623,-2.600634 1.03239,-2.600634 0.32615,0 0.59301,-0.438857 0.59301,-0.975238 0,-0.536381 0.26085,-0.975238 0.57967,-0.975238 0.31883,0 0.76326,-0.731429 0.98763,-1.625397 0.22437,-0.893968 0.69494,-1.625397 1.04572,-1.625397 0.35077,0 0.63777,-0.438857 0.63777,-0.975238 0,-0.536381 0.27286,-0.975238 0.60635,-0.975238 0.33349,0 0.80848,-0.636885 1.05554,-1.4153 0.24706,-0.778415 1.14449,-2.16514 1.99429,-3.08161 0.8498,-0.916471 1.54509,-1.866672 1.54509,-2.111558 0,-0.630054 8.88779,-9.371489 12.01702,-11.819132 1.43635,-1.123499 2.70907,-2.264331 2.82827,-2.535181 0.1192,-0.270851 0.6312,-0.492456 1.13778,-0.492456 0.50658,0 0.92106,-0.286997 0.92106,-0.637772 0,-0.350774 0.73143,-0.821348 1.62539,-1.04572 0.89397,-0.224372 1.6254,-0.637086 1.6254,-0.917143 0,-0.280056 0.73143,-0.69277 1.6254,-0.917142 0.89396,-0.224372 1.62539,-0.694946 1.62539,-1.0457205 0,-0.3507742 0.58515,-0.6377718 1.30032,-0.6377718 0.71518,0 1.30032,-0.2925714 1.30032,-0.6501587 0,-0.3575873 0.512,-0.6519609 1.13778,-0.6541643 0.62577,-0.00221 1.97579,-0.4410599 3.00003,-0.9752379 1.02424,-0.5341779 2.26767,-0.9712326 2.76317,-0.9712326 0.49551,0 0.90092,-0.2651171 0.90092,-0.5891491 0,-0.3240321 1.46253,-0.7902986 3.25007,-1.0361477 1.78754,-0.2458492 3.41395,-0.7121606 3.61424,-1.0362476 0.2003,-0.3240869 1.49993,-0.589249 2.88807,-0.589249 1.38814,0 2.70472,-0.2925714 2.92572,-0.6501587 0.54397,-0.8801638 23.08063,-0.8801638 23.08063,0 0,0.3575873 1.17029,0.6501587 2.60064,0.6501587 1.43034,0 2.60063,0.254781 2.60063,0.5661801 0,0.3113991 1.75543,0.7647842 3.90095,1.0075226 2.14553,0.2427384 3.90095,0.7193858 3.90095,1.0592166 0,0.3398308 0.56788,0.6178741 1.26195,0.6178741 0.69407,0 1.42274,0.2601606 1.61925,0.5781345 0.19653,0.317974 1.16172,0.7800275 2.14488,1.0267855 0.98316,0.2467573 1.93678,0.6478428 2.11916,0.8913 0.18237,0.2434571 2.02396,1.2842454 4.09241,2.3128618 3.69992,1.839927 6.69354,3.907912 10.54267,7.282841 1.07276,0.940601 3.02626,2.481281 4.34111,3.423733 1.31485,0.942452 2.8305,2.444978 3.36812,3.338946 0.53761,0.893968 2.02183,2.723219 3.29825,4.065 1.27642,1.341782 2.32077,2.686151 2.32077,2.987487 0,0.301337 0.6093,1.099289 1.35399,1.773229 0.7447,0.67394 1.7796,2.108999 2.2998,3.189021 0.52018,1.080021 1.95662,3.865389 3.19209,6.189707 1.23546,2.324317 2.24855,4.738031 2.25132,5.363809 0.003,0.625778 0.2976,1.137778 0.65518,1.137778 0.35759,0 0.65016,0.731428 0.65016,1.625396 0,0.893968 0.27152,1.625397 0.60338,1.625397 0.33186,0 0.80491,1.613009 1.05122,3.584465 0.24632,1.971456 0.70623,3.744151 1.02202,3.939322 0.3158,0.195172 0.57418,1.636896 0.57418,3.203831 0,1.566936 0.29257,3.029792 0.65015,3.250794 0.87209,0.538975 0.87209,17.229205 0,17.229205 -0.35758,0 -0.65015,1.445589 -0.65015,3.212421 0,1.766833 -0.26379,3.375455 -0.58619,3.574709 -0.3224,0.199254 -0.78999,2.118237 -1.03907,4.264404 -0.24909,2.146161 -0.71674,3.902116 -1.03922,3.902116 -0.32247,0 -0.58632,0.44283 -0.58632,0.984061 0,0.541228 -0.27245,1.492088 -0.60546,2.113018 -0.33301,0.62093 -1.55513,3.17695 -2.71581,5.68006 -1.1607,2.50311 -2.31166,4.6974 -2.5577,4.87619 -0.24605,0.1788 -0.65279,0.98337 -0.90388,1.78794 -0.25108,0.80457 -0.72937,1.46286 -1.06287,1.46286 -0.33348,0 -0.60634,0.31346 -0.60634,0.6966 0,0.38312 -0.36571,1.1044 -0.8127,1.60283 -1.80095,2.00823 -2.43809,2.86783 -2.43809,3.28933 0,0.56966 -12.09257,12.61568 -12.66443,12.61568 -0.23739,0 -0.83943,0.36571 -1.33786,0.8127 -2.15143,1.92936 -2.88685,2.43809 -3.52456,2.43809 -0.37268,0 -0.6776,0.287 -0.6776,0.63778 0,0.35077 -0.73143,0.82134 -1.62539,1.04572 -0.89397,0.22437 -1.62817,0.59565 -1.63156,0.82508 -0.003,0.22942 -1.31996,0.99471 -2.92571,1.70063 -1.60576,0.70592 -2.91956,1.47793 -2.91956,1.71558 0,0.23765 -1.024,0.62419 -2.27555,0.85898 -1.25156,0.23479 -2.27556,0.70622 -2.27556,1.0476 0,0.34138 -0.73143,0.6207 -1.6254,0.6207 -0.89396,0 -1.62539,0.27152 -1.62539,0.60337 0,0.33186 -1.61301,0.80491 -3.58447,1.05123 -1.97145,0.24632 -3.74415,0.70623 -3.93932,1.02202 -0.19517,0.31579 -1.65417,0.57417 -3.2422,0.57417 -1.58804,0 -2.88735,0.29257 -2.88735,0.65016 0,0.40454 -3.68423,0.65016 -9.75238,0.65016 -6.06814,0 -9.75238,-0.24562 -9.75238,-0.65016 z m 15.21864,-16.15673 c 0.18795,-0.30411 2.60563,-0.74429 5.37262,-0.97819 2.76699,-0.23389 5.32214,-0.71651 5.67811,-1.07248 0.35596,-0.35596 1.32012,-0.6472 2.14257,-0.6472 0.82245,0 1.49536,-0.25518 1.49536,-0.56706 0,-0.31189 1.17029,-0.75421 2.60064,-0.98293 1.43035,-0.22872 2.60063,-0.70497 2.60063,-1.05833 0,-0.35336 0.43886,-0.64248 0.97524,-0.64248 0.53638,0 0.97524,-0.26085 0.97524,-0.57967 0,-0.31883 0.73143,-0.76326 1.6254,-0.98763 0.89396,-0.22437 1.62539,-0.69494 1.62539,-1.04572 0,-0.35077 0.45283,-0.63777 1.00629,-0.63777 0.55345,0 1.68414,-0.73143 2.51264,-1.6254 0.82851,-0.89396 1.79018,-1.62539 2.13704,-1.62539 0.34688,0 1.39805,-0.80457 2.33596,-1.78794 2.13503,-2.23852 2.93527,-3.03876 5.17379,-5.17379 0.98336,-0.9379 1.78793,-1.96279 1.78793,-2.27752 0,-0.31473 0.73143,-1.30367 1.6254,-2.19764 0.89397,-0.89396 1.6254,-2.05095 1.6254,-2.57107 0,-0.52013 0.27285,-0.94569 0.60634,-0.94569 0.33349,0 0.81178,-0.65829 1.06287,-1.46286 0.25109,-0.80457 0.65176,-1.60914 0.89038,-1.78794 0.71471,-0.5355 2.64168,-4.994061 2.64168,-6.112223 0,-0.571737 0.25936,-1.039519 0.57636,-1.039519 0.31701,0 0.73178,-0.804572 0.92172,-1.787937 0.18995,-0.983365 0.65503,-2.958222 1.03352,-4.388571 0.37849,-1.430349 0.69515,-4.558224 0.70368,-6.950833 0.009,-2.39261 0.30808,-4.531021 0.66567,-4.752023 0.79095,-0.488835 0.87456,-4.226032 0.0945,-4.226032 -0.30559,0 -0.71864,-2.958417 -0.91788,-6.574262 -0.19924,-3.61584 -0.68064,-6.89264 -1.06978,-7.281774 -0.38913,-0.389135 -0.70752,-1.380433 -0.70752,-2.202884 0,-0.82245 -0.25518,-1.495365 -0.56706,-1.495365 -0.31189,0 -0.7542,-1.170285 -0.98292,-2.600634 -0.22872,-1.430349 -0.63356,-2.600635 -0.89963,-2.600635 -0.26607,0 -0.89541,-0.950857 -1.39853,-2.113016 -1.30078,-3.004662 -4.4766,-7.616775 -6.89934,-10.01966 -1.13972,-1.13037 -2.25314,-2.52672 -2.47429,-3.103001 -0.22114,-0.576281 -0.84256,-1.216815 -1.38093,-1.42341 -0.53838,-0.206595 -2.22731,-1.525185 -3.75316,-2.930201 -4.91315,-4.524041 -5.47488,-4.957794 -7.06322,-5.45401 -0.85938,-0.268482 -1.70879,-0.683389 -1.88758,-0.922015 -0.53551,-0.714704 -4.99407,-2.641669 -6.11223,-2.641669 -0.57174,0 -1.03952,-0.292572 -1.03952,-0.650159 0,-0.357587 -0.56787,-0.650159 -1.26194,-0.650159 -0.69407,0 -1.43223,-0.275518 -1.64035,-0.612263 -0.20812,-0.336746 -2.42617,-0.814045 -4.92899,-1.060667 -2.50282,-0.246622 -4.70765,-0.702532 -4.89961,-1.013134 -0.45267,-0.732427 -15.87609,-0.74077 -15.87609,-0.0086 0,0.305879 -1.82857,0.734233 -4.06349,0.951899 -4.21988,0.410987 -8.28953,1.655737 -8.28953,2.53545 0,0.279191 -0.61407,0.50762 -1.36459,0.50762 -1.36991,0 -5.82908,1.829904 -6.43731,2.641669 -0.17879,0.238626 -0.98336,0.6393 -1.78794,0.890387 -0.80457,0.251086 -1.46285,0.729377 -1.46285,1.062867 0,0.33349 -0.33217,0.606346 -0.73815,0.606346 -0.40598,0 -1.41601,0.731429 -2.24451,1.625397 -0.8285,0.893968 -1.7895,1.625396 -2.13556,1.625396 -0.77358,0 -8.53512,7.691209 -8.53512,8.457784 0,0.303519 -1.0304,1.644396 -2.28977,2.979726 -1.25938,1.335331 -2.46139,3.111591 -2.67112,3.947245 -0.20974,0.835654 -0.57077,1.519371 -0.80231,1.519371 -0.23153,0 -0.82411,0.950858 -1.31685,2.113016 -0.49273,1.162159 -1.27586,2.99073 -1.74027,4.063492 -1.75398,4.051602 -2.88253,8.260493 -2.88253,10.75034 0,1.417855 -0.29257,2.577913 -0.65016,2.577913 -0.40133,0 -0.65016,3.359156 -0.65016,8.777143 0,4.827428 0.25164,8.777142 0.5592,8.777142 0.30756,0 0.7244,1.600626 0.92631,3.55694 0.40267,3.901531 1.72928,8.145916 2.54605,8.145916 0.28575,0 0.51955,0.614069 0.51955,1.364599 0,1.36991 1.82991,5.829088 2.64167,6.437308 0.23863,0.17879 0.6393,0.98337 0.89039,1.78794 0.25108,0.80457 0.72937,1.46285 1.06287,1.46285 0.33348,0 0.60634,0.33118 0.60634,0.73593 0,0.40476 1.024,1.70169 2.27556,2.88206 1.25155,1.18037 2.27555,2.41358 2.27555,2.74046 0,0.86521 1.86819,2.79143 5.20127,5.36284 1.60914,1.24142 3.54441,2.91541 4.30059,3.71998 0.75618,0.80457 1.70703,1.46286 2.11301,1.46286 0.40598,0 0.73815,0.26933 0.73815,0.5985 0,0.32917 0.87771,0.79128 1.95047,1.0269 1.07276,0.23561 1.95048,0.69772 1.95048,1.0269 0,0.32917 0.58514,0.59849 1.30032,0.59849 0.71517,0 1.30031,0.27932 1.30031,0.6207 0,0.34138 1.024,0.81281 2.27556,1.0476 1.25155,0.23479 2.27555,0.6869 2.27555,1.00469 0,0.3178 0.67292,0.57781 1.49537,0.57781 0.82245,0 1.81333,0.31796 2.20196,0.70659 0.38862,0.38863 3.08028,0.86929 5.98146,1.06814 2.90117,0.19885 5.27486,0.61231 5.27486,0.9188 0,0.72514 10.21948,0.72929 10.66753,0.005 z"
         id="path1926" /><path
         style="fill:#ec1c24;fill-opacity:1;stroke:#ec1c24;stroke-width:0.160746;stroke-miterlimit:1.5;stroke-dasharray:none;stroke-opacity:1"
         d="m 249.86782,323.23327 c 0,-0.23392 -0.95694,-0.42531 -2.12653,-0.42531 -1.60672,0 -2.12654,-0.15595 -2.12654,-0.63796 0,-0.35442 -0.37805,-0.63796 -0.85061,-0.63796 -0.46784,0 -0.85062,-0.19139 -0.85062,-0.42531 0,-0.23392 -0.28708,-0.42531 -0.63796,-0.42531 -0.35087,0 -0.63796,-0.20505 -0.63796,-0.45568 0,-0.58883 -1.08202,-1.67085 -1.67085,-1.67085 -0.25062,0 -0.45568,-0.47847 -0.45568,-1.06327 0,-0.58479 -0.16673,-1.06326 -0.37052,-1.06326 -0.20378,0 -0.49745,-0.95694 -0.6526,-2.12654 -0.16245,-1.22458 -0.50138,-2.1293 -0.79908,-2.13305 -0.38515,-0.005 -0.37855,-0.0944 0.0259,-0.35102 0.29858,-0.18949 0.65864,-1.32198 0.80013,-2.51664 l 0.25725,-2.17213 10.57183,-3.44273 10.57182,-3.44273 59.19225,0.0173 c 32.55573,0.009 59.40017,0.17965 59.6543,0.37813 0.25413,0.19849 1.39637,0.48281 2.53831,0.63184 1.21964,0.15917 2.3602,0.59698 2.76449,1.06118 0.37854,0.43463 1.11887,0.9262 1.64519,1.09239 0.52631,0.16618 0.95694,0.58234 0.95694,0.9248 0,0.34245 0.28708,0.73281 0.63796,0.86745 0.35087,0.13465 0.63796,0.51142 0.63796,0.83727 0,0.32585 0.19139,0.59246 0.4253,0.59246 0.23392,0 0.42531,0.47847 0.42531,1.06326 0,0.66159 0.24101,1.06327 0.63796,1.06327 0.93039,0 0.93039,6.17638 0,6.53341 -0.35088,0.13464 -0.63796,0.63359 -0.63796,1.10877 0,0.47518 -0.19139,0.86396 -0.42531,0.86396 -0.23391,0 -0.4253,0.26661 -0.4253,0.59246 0,0.32585 -0.28709,0.70262 -0.63796,0.83726 -0.35088,0.13465 -0.63796,0.63359 -0.63796,1.10877 0,0.59036 -0.27901,0.86396 -0.881,0.86396 -0.9416,0 -2.09615,0.9203 -2.09615,1.67085 0,0.26329 -0.89787,0.45569 -2.12654,0.45569 -1.16959,0 -2.12653,0.19139 -2.12653,0.42531 0,0.28169 -22.04508,0.4253 -65.28462,0.4253 -43.23953,0 -65.28461,-0.14361 -65.28461,-0.4253 z"
         id="path10704" /><path
         style="fill:#ec1c24;fill-opacity:1;stroke:#ec1c24;stroke-width:0.160746;stroke-miterlimit:1.5;stroke-dasharray:none;stroke-opacity:1"
         d="m 264.13779,251.87477 c -0.12916,-0.12916 -0.23484,-0.7771 -0.23484,-1.43987 0,-0.66277 -0.19139,-1.20504 -0.42531,-1.20504 -0.23392,0 -0.4253,-0.28708 -0.4253,-0.63796 0,-0.35088 -0.28709,-0.63796 -0.63796,-0.63796 -0.39696,0 -0.63796,-0.40168 -0.63796,-1.06327 0,-0.58479 -0.14787,-1.06326 -0.3286,-1.06326 -0.18072,0 -0.68933,-0.66986 -1.13024,-1.48858 -0.4409,-0.81871 -0.9629,-1.48857 -1.15998,-1.48857 -0.19708,0 -0.35833,-0.47847 -0.35833,-1.06327 0,-0.66159 -0.24101,-1.06327 -0.63796,-1.06327 -0.39696,0 -0.63796,-0.40168 -0.63796,-1.06327 0,-0.58479 -0.19139,-1.06326 -0.42531,-1.06326 -0.23392,0 -0.42531,-0.28708 -0.42531,-0.63796 0,-0.35088 -0.28708,-0.63796 -0.63796,-0.63796 -0.39695,0 -0.63796,-0.40168 -0.63796,-1.06327 0,-0.5848 -0.14786,-1.06327 -0.32859,-1.06327 -0.18072,0 -0.68933,-0.66986 -1.13024,-1.48857 -0.44091,-0.81872 -0.9629,-1.48858 -1.15998,-1.48858 -0.19709,0 -0.35834,-0.38878 -0.35834,-0.86396 0,-0.47518 -0.28708,-0.97412 -0.63796,-1.10877 -0.35088,-0.13464 -0.63796,-0.57916 -0.63796,-0.98781 0,-0.40866 -0.47847,-1.25929 -1.06327,-1.89029 -0.58479,-0.63101 -1.06326,-1.50426 -1.06326,-1.94055 0,-0.43629 -0.147,-0.85705 -0.32667,-0.93503 -0.17967,-0.078 -0.98679,-1.1944 -1.7936,-2.48095 -0.80681,-1.28656 -1.5689,-2.43488 -1.69354,-2.55184 -0.12463,-0.11696 -0.55844,-0.93036 -0.96401,-1.80756 -0.40558,-0.87719 -0.9319,-1.5949 -1.1696,-1.5949 -0.2377,0 -0.43219,-0.66986 -0.43219,-1.48857 0,-0.81872 -0.19138,-1.48858 -0.4253,-1.48858 -0.55416,0 -0.55416,-2.42201 0,-2.76449 0.23392,-0.14457 0.4253,-0.68924 0.4253,-1.21037 0,-0.53778 0.81884,-1.81435 1.89355,-2.95205 1.45144,-1.53653 2.19618,-2.00453 3.1898,-2.00453 0.71294,0 1.29626,-0.19139 1.29626,-0.42531 0,-0.23392 0.28708,-0.42531 0.63796,-0.42531 0.35088,0 0.63796,0.19139 0.63796,0.42531 0,0.23392 0.64642,0.42531 1.4365,0.42531 0.79007,0 1.67475,0.28708 1.96595,0.63796 0.29121,0.35087 0.79311,0.63796 1.11535,0.63796 0.32223,0 0.58588,0.19139 0.58588,0.4253 0,0.23392 0.24193,0.42531 0.53763,0.42531 0.2957,0 0.86929,0.76555 1.27466,1.70123 0.40536,0.93567 0.92898,1.70123 1.1636,1.70123 0.23461,0 0.43265,0.33493 0.44009,0.74428 0.0167,0.91922 0.97466,2.23286 1.62826,2.23286 0.26662,0 0.48475,0.47848 0.48475,1.06327 0,0.5848 0.19139,1.06327 0.42531,1.06327 0.23392,0 0.42531,0.38878 0.42531,0.86396 0,0.47518 0.28708,0.97413 0.63796,1.10877 0.35087,0.13465 0.63796,0.51142 0.63796,0.83727 0,0.32585 0.19138,0.59245 0.4253,0.59245 0.23392,0 0.42531,0.38879 0.42531,0.86397 0,0.47518 0.28708,0.97412 0.63796,1.10877 0.35088,0.13464 0.64405,0.55926 0.65149,0.94359 0.0171,0.88156 0.98909,2.18736 1.62826,2.18736 0.26661,0 0.48475,0.47847 0.48475,1.06327 0,0.58479 0.17064,1.06326 0.3792,1.06326 0.20856,0 0.49928,0.47847 0.64606,1.06327 0.14677,0.5848 0.4546,1.06327 0.68407,1.06327 0.22946,0 0.4172,0.28708 0.4172,0.63796 0,0.35088 0.19139,0.63796 0.42531,0.63796 0.23392,0 0.4253,0.38878 0.4253,0.86396 0,0.47518 0.28709,0.97413 0.63796,1.10877 0.35088,0.13465 0.64405,0.55926 0.65149,0.94359 0.0171,0.88156 0.9891,2.18736 1.62826,2.18736 0.26661,0 0.48475,0.47847 0.48475,1.06327 0,0.5848 0.17064,1.06327 0.3792,1.06327 0.20856,0 0.49929,0.47847 0.64606,1.06326 0.14678,0.5848 0.45461,1.06327 0.68407,1.06327 0.22946,0 0.4172,0.28708 0.4172,0.63796 0,0.35088 0.19139,0.63796 0.42531,0.63796 0.23392,0 0.42531,0.37327 0.42531,0.82948 0,0.45622 0.24956,0.98253 0.55458,1.1696 0.30502,0.18706 0.88816,1.05781 1.29587,1.93501 0.40772,0.8772 0.92371,1.5949 1.14665,1.5949 0.22294,0 0.40535,0.36683 0.40535,0.81517 0,0.44835 0.22825,0.89126 0.50721,0.98425 0.27897,0.093 -0.63013,0.49337 -2.0202,0.88975 -1.39008,0.39638 -5.14903,1.55836 -8.35321,2.58217 -3.20418,1.02381 -5.93146,1.7558 -6.06062,1.62664 z"
         id="path10706" /><path
         style="fill:#fcb813;fill-opacity:1;stroke:#fcb813;stroke-width:0.431646;stroke-miterlimit:1.5;stroke-dasharray:none;stroke-opacity:1"
         d="m 219.98273,544.20643 c 0,-0.26916 -0.66069,-0.48939 -1.46819,-0.48939 -0.8075,0 -1.46818,-0.21603 -1.46818,-0.48007 0,-0.26404 -0.55057,-0.61825 -1.22348,-0.78715 -0.67292,-0.16889 -1.22349,-0.50342 -1.22349,-0.74341 0,-0.23999 -0.44046,-0.43634 -0.97879,-0.43634 -0.53833,0 -0.97879,-0.18302 -0.97879,-0.4067 0,-0.22368 -0.60562,-0.71919 -1.34583,-1.10114 -1.70656,-0.88057 -5.99508,-5.28289 -5.99508,-6.15416 0,-0.36174 -0.17912,-0.6577 -0.39805,-0.6577 -0.21893,0 -0.70049,-0.7708 -1.07013,-1.71288 -0.36965,-0.94209 -0.85121,-1.71288 -1.07014,-1.71288 -0.21892,0 -0.39805,-0.42473 -0.39805,-0.94384 0,-0.51911 -0.33034,-1.27417 -0.73409,-1.67792 -0.47497,-0.47496 -0.73409,-1.68637 -0.73409,-3.43183 0,-1.48376 -0.22023,-2.83385 -0.48939,-3.00021 -0.63721,-0.39381 -0.63721,-2.69167 0,-2.69167 0.26916,0 0.48939,-1.21125 0.48939,-2.69167 0,-1.48041 0.22023,-2.69166 0.48939,-2.69166 0.26917,0 0.49075,-0.3854 0.49241,-0.85644 0.001,-0.47105 0.332,-1.48724 0.73409,-2.25822 0.4021,-0.77098 0.73108,-1.81706 0.73108,-2.32462 0,-0.50757 0.22023,-0.92285 0.4894,-0.92285 0.26916,0 0.48939,-0.53757 0.48939,-1.1946 0,-0.65703 0.22023,-1.33071 0.48939,-1.49707 0.26917,-0.16635 0.4894,-0.84003 0.4894,-1.49706 0,-0.65704 0.22023,-1.19461 0.48939,-1.19461 0.26917,0 0.4894,-0.55057 0.4894,-1.22348 0,-0.67292 0.22022,-1.22349 0.48939,-1.22349 0.26917,0 0.4894,-0.63712 0.4894,-1.41582 0,-0.80705 0.31564,-1.53695 0.73409,-1.69752 0.40375,-0.15494 0.73409,-0.71607 0.73409,-1.24697 0,-0.53089 0.22023,-1.10137 0.48939,-1.26772 0.26917,-0.16636 0.4894,-0.84004 0.4894,-1.49707 0,-0.65703 0.22022,-1.1946 0.48939,-1.1946 0.26917,0 0.4894,-0.53757 0.4894,-1.1946 0,-0.65703 0.22022,-1.33071 0.48939,-1.49707 0.26917,-0.16635 0.48939,-1.07326 0.48939,-2.01534 0,-0.94208 0.19689,-1.5912 0.43753,-1.44247 0.24064,0.14872 0.76947,-0.55402 1.17517,-1.56166 0.40571,-1.00763 3.40756,-8.43103 6.6708,-16.49644 3.26322,-8.06542 5.83149,-14.9293 5.70724,-15.25307 -0.12424,-0.32377 0.0905,-0.71011 0.4773,-0.85852 0.38675,-0.14841 0.70319,-0.72019 0.70319,-1.27062 0,-0.96607 0.17236,-1.43603 1.39177,-3.79489 0.31119,-0.60197 0.5658,-1.52494 0.5658,-2.05104 0,-0.5261 0.22023,-1.09266 0.4894,-1.25901 0.26916,-0.16636 0.48939,-0.72992 0.48939,-1.25237 0,-0.52245 0.22023,-0.94991 0.4894,-0.94991 0.26916,0 0.48939,-0.77079 0.48939,-1.71288 0,-0.94208 0.2041,-1.71288 0.45355,-1.71288 0.64357,0 1.99342,-2.86777 1.99342,-4.23504 0,-0.63156 0.22023,-1.14829 0.4894,-1.14829 0.26916,0 0.48939,-0.44046 0.48939,-0.97879 0,-0.53833 0.22023,-0.97879 0.48939,-0.97879 0.26917,0 0.4894,-0.64768 0.4894,-1.4393 0,-0.79161 0.22023,-1.57541 0.48939,-1.74176 0.26917,-0.16636 0.4894,-0.72992 0.4894,-1.25237 0,-0.52245 0.22023,-0.94991 0.48939,-0.94991 0.26917,0 0.4894,-0.63712 0.4894,-1.41582 0,-0.80705 0.31564,-1.53695 0.73409,-1.69752 0.40375,-0.15493 0.73409,-0.71607 0.73409,-1.24696 0,-0.5309 0.22023,-1.10138 0.48939,-1.26773 0.26917,-0.16636 0.4894,-0.84004 0.4894,-1.49707 0,-0.65703 0.22023,-1.1946 0.48939,-1.1946 0.26917,0 0.4894,-0.55057 0.4894,-1.22348 0,-0.67292 0.22022,-1.22349 0.48939,-1.22349 0.26917,0 0.48939,-0.66068 0.48939,-1.46818 0,-0.8075 0.22023,-1.46819 0.4894,-1.46819 0.26917,0 0.48939,-0.55056 0.48939,-1.22348 0,-0.67292 0.22023,-1.22349 0.4894,-1.22349 0.26916,0 0.49075,-0.27528 0.49241,-0.61174 10e-4,-0.33646 0.29283,-1.16705 0.64705,-1.84577 0.35423,-0.67871 0.95152,-2.27536 1.32732,-3.5481 0.3758,-1.27275 0.85542,-2.31409 1.06582,-2.31409 0.2104,0 0.38255,-0.53757 0.38255,-1.1946 0,-0.65703 0.22023,-1.33071 0.4894,-1.49707 0.26916,-0.16635 0.48939,-0.84003 0.48939,-1.49707 0,-0.65703 0.22023,-1.1946 0.48939,-1.1946 0.26917,0 0.4894,-0.66068 0.4894,-1.46818 v -1.46818 h -13.17287 c -7.98205,0 -13.23714,0.18524 -13.33599,0.4701 -0.10319,0.29737 -11.40204,0.12826 -30.75027,-0.46026 -39.29794,-1.19531 -43.37807,-1.38284 -44.67949,-2.05358 -2.41331,-1.24381 -2.83867,-1.38202 -4.2533,-1.38202 -0.81115,0 -1.47482,-0.22023 -1.47482,-0.4894 0,-0.26916 -0.44046,-0.48939 -0.97879,-0.48939 -0.53833,0 -0.97879,-0.16647 -0.97879,-0.36993 0,-0.20346 -0.71574,-0.68543 -1.59053,-1.07105 -0.87479,-0.38562 -1.85203,-0.93489 -2.17164,-1.22061 -0.31962,-0.28571 -1.39241,-1.18016 -2.38399,-1.98766 -2.29222,-1.86669 -4.4667,-4.04117 -6.33339,-6.33339 -0.8075,-0.99158 -1.74347,-2.1037 -2.07993,-2.47138 -0.33646,-0.36767 -0.61174,-0.90446 -0.61174,-1.19285 0,-0.2884 -0.22023,-0.52435 -0.4894,-0.52435 -0.26916,0 -0.48939,-0.44046 -0.48939,-0.97879 0,-0.53834 -0.22023,-0.97879 -0.48939,-0.97879 -0.26917,0 -0.4894,-0.44046 -0.4894,-0.97879 0,-0.53833 -0.22023,-0.97879 -0.48939,-0.97879 -0.26917,0 -0.4894,-0.64768 -0.4894,-1.4393 0,-0.79161 -0.22022,-1.57541 -0.48939,-1.74176 -0.26917,-0.16636 -0.4894,-0.85451 -0.4894,-1.52924 0,-0.67473 -0.27528,-1.70781 -0.61174,-2.29574 -0.45945,-0.80285 -0.70817,-8.68346 -0.99908,-31.65611 -0.68397,-54.0116 -0.87505,-104.73037 -0.39457,-104.73037 0.24954,0 0.60878,-1.65488 0.79831,-3.67752 0.18954,-2.02264 0.53867,-3.79745 0.77585,-3.94404 0.23718,-0.14658 0.43123,-0.79109 0.43123,-1.43223 0,-0.64115 0.22023,-1.30183 0.4894,-1.46819 0.26917,-0.16635 0.48939,-0.95014 0.48939,-1.74176 0,-0.79162 0.22023,-1.4393 0.4894,-1.4393 0.26916,0 0.48939,-0.44046 0.48939,-0.97879 0,-0.53833 0.16647,-0.97879 0.36993,-0.97879 0.20346,0 0.68498,-0.71176 1.07005,-1.58169 0.38507,-0.86993 1.15457,-2.07876 1.71,-2.68629 2.82864,-3.09396 3.21215,-3.54906 3.21215,-3.81178 0,-0.49339 2.379,-2.68691 2.91412,-2.68691 0.2814,0 0.51164,-0.22023 0.51164,-0.4894 0,-0.26916 0.27528,-0.48966 0.61174,-0.48999 0.52977,-5.4e-4 1.41498,-0.62631 4.1392,-2.92615 0.32509,-0.27446 0.93072,-0.49901 1.34583,-0.49901 0.41511,0 0.75475,-0.22023 0.75475,-0.48939 0,-0.26917 0.33034,-0.4894 0.73409,-0.4894 0.40375,0 0.73409,-0.22023 0.73409,-0.48939 0,-0.26917 0.64768,-0.4894 1.4393,-0.4894 0.79162,0 1.57541,-0.22022 1.74176,-0.48939 0.16636,-0.26917 1.04727,-0.4894 1.95758,-0.4894 0.91031,0 1.79122,-0.22022 1.95758,-0.48939 0.41538,-0.67211 48.52404,-0.67211 48.93942,0 0.16636,0.26917 1.06027,0.48939 1.98647,0.48939 0.92619,0 1.68399,0.22023 1.68399,0.4894 0,0.26917 0.7708,0.48939 1.71288,0.48939 0.94209,0 1.71288,0.22023 1.71288,0.4894 0,0.26916 0.44046,0.48939 0.97879,0.48939 0.53833,0 0.97879,0.22023 0.97879,0.4894 0,0.26916 0.41689,0.48939 0.92643,0.48939 0.50953,0 1.05319,0.33034 1.20813,0.73409 0.15493,0.40375 0.58628,0.73409 0.95856,0.73409 0.37227,0 1.36821,0.66069 2.21317,1.46819 0.84498,0.8075 1.75855,1.46818 2.03017,1.46818 0.27161,0 0.49385,0.16647 0.49385,0.36993 0,0.20346 0.60562,0.63849 1.34583,0.96673 0.74021,0.32825 1.66219,1.314 2.04884,2.19056 0.77202,1.75019 2.6304,3.81369 3.4346,3.81369 0.28141,0 0.51164,0.55057 0.51164,1.22349 0,0.67292 0.22023,1.22348 0.4894,1.22348 0.26916,0 0.48939,0.44046 0.48939,0.97879 0,0.53834 0.22023,0.97879 0.48939,0.97879 0.26917,0 0.4894,0.44046 0.4894,0.97879 0,0.53833 0.22023,0.97879 0.48939,0.97879 0.26917,0 0.4894,0.55057 0.4894,1.22348 0,0.67292 0.22022,1.22349 0.48939,1.22349 0.26917,0 0.4894,0.72675 0.4894,1.615 0,0.88825 0.2485,1.86351 0.55223,2.16723 0.30373,0.30373 0.64949,2.16465 0.76837,4.13538 0.11887,1.97074 0.46542,4.09226 0.77011,4.71449 0.40901,0.83529 0.41078,1.36064 0.007,2.00759 -0.37212,0.59585 -0.57465,6.41967 -0.6329,18.19973 -0.10745,21.72413 -0.24733,19.52577 1.24245,19.52577 0.68137,0 1.36561,-0.33034 1.52054,-0.73409 0.17382,-0.45294 0.91767,-0.7341 1.94222,-0.7341 0.91329,0 1.66052,-0.22022 1.66052,-0.48939 0,-0.26917 0.64769,-0.48939 1.4393,-0.48939 0.79162,0 1.57541,-0.22023 1.74177,-0.4894 0.16635,-0.26917 0.93715,-0.48939 1.71288,-0.48939 0.77573,0 1.54652,-0.22023 1.71288,-0.4894 0.16635,-0.26916 0.93715,-0.48939 1.71288,-0.48939 0.77573,0 1.54652,-0.22023 1.71288,-0.4894 0.16635,-0.26916 0.93715,-0.48939 1.71288,-0.48939 0.77573,0 1.54652,-0.22023 1.71288,-0.48939 0.16635,-0.26917 0.71418,-0.4894 1.21741,-0.4894 0.50322,0 1.24529,-0.33034 1.64904,-0.73409 0.40375,-0.40375 1.4105,-0.73409 2.23723,-0.73409 0.82673,0 1.50314,-0.22023 1.50314,-0.4894 0,-0.26916 0.66068,-0.48939 1.46818,-0.48939 0.8075,0 1.46818,-0.22023 1.46818,-0.48939 0,-0.26917 0.7708,-0.4894 1.71288,-0.4894 0.94209,0 1.71288,-0.22023 1.71288,-0.48939 0,-0.26917 0.55356,-0.4894 1.23013,-0.4894 0.67657,0 1.61254,-0.19453 2.07993,-0.43229 2.26604,-1.15275 3.91183,-1.74068 11.83572,-4.22811 4.69642,-1.47428 9.05282,-2.68051 9.68089,-2.68051 0.62807,0 1.26871,-0.33034 1.42365,-0.73409 0.19124,-0.49838 0.97204,-0.73409 2.43161,-0.73409 1.18245,0 2.14991,-0.22023 2.14991,-0.4894 0,-0.29001 1.79445,-0.48939 4.40455,-0.48939 2.6101,0 4.40455,0.19938 4.40455,0.48939 0,0.26917 0.66068,0.4894 1.46818,0.4894 0.8075,0 1.46819,0.17784 1.46819,0.39521 0,0.21737 0.9141,0.79851 2.03134,1.29144 2.21185,0.97586 3.17209,1.67448 5.49663,3.99902 2.32746,2.32746 3.2387,3.55207 3.2387,4.3525 0,0.40067 0.22023,0.7285 0.48939,0.7285 0.26917,0 0.4894,0.44046 0.4894,0.97879 0,0.53833 0.22023,0.97879 0.48939,0.97879 0.26917,0 0.4894,0.63371 0.4894,1.40826 0,0.77454 0.33034,1.68241 0.73409,2.0175 1.00573,0.83468 0.99412,7.20066 -0.0156,8.53559 -0.39519,0.52248 -0.71853,1.45845 -0.71853,2.07992 0,0.62147 -0.22023,1.12995 -0.4894,1.12995 -0.26916,0 -0.48939,0.55057 -0.48939,1.22349 0,0.67291 -0.22023,1.22348 -0.4894,1.22348 -0.26916,0 -0.48939,0.34098 -0.48939,0.75772 0,1.00152 -6.54295,7.56198 -7.5418,7.56198 -0.42784,0 -0.7779,0.22023 -0.7779,0.4894 0,0.26916 -0.55057,0.48939 -1.22349,0.48939 -0.67292,0 -1.22348,0.22023 -1.22348,0.4894 0,0.26916 -0.53757,0.48939 -1.19461,0.48939 -0.65703,0 -1.33071,0.22023 -1.49706,0.4894 -0.16636,0.26916 -0.8243,0.48939 -1.46211,0.48939 -0.6378,0 -1.48999,0.33034 -1.89374,0.73409 -0.40375,0.40375 -1.30039,0.73409 -1.99253,0.73409 -0.69215,0 -1.25844,0.22023 -1.25844,0.4894 0,0.26916 -0.7708,0.48939 -1.71288,0.48939 -0.94209,0 -1.71288,0.22023 -1.71288,0.4894 0,0.26916 -0.66069,0.48939 -1.46819,0.48939 -0.8075,0 -1.46818,0.22023 -1.46818,0.48939 0,0.26917 -0.7708,0.4894 -1.71288,0.4894 -0.94208,0 -1.71288,0.22023 -1.71288,0.48939 0,0.26917 -0.60563,0.4964 -1.34583,0.50496 -0.74021,0.009 -1.77333,0.3389 -2.29582,0.73409 -0.52248,0.39519 -1.44545,0.71853 -2.05104,0.71853 -0.60558,0 -1.23717,0.22023 -1.40353,0.48939 -0.16635,0.26917 -0.95015,0.4894 -1.74176,0.4894 -0.79162,0 -1.4393,0.22023 -1.4393,0.48939 0,0.26917 -0.7708,0.4894 -1.71288,0.4894 -0.94208,0 -1.71288,0.22022 -1.71288,0.48939 0,0.26917 -0.55356,0.4894 -1.23013,0.4894 -0.67656,0 -1.61253,0.19407 -2.07992,0.43127 -0.46739,0.2372 -6.4656,2.24327 -13.32936,4.45795 -6.86375,2.21467 -12.68877,4.22287 -12.94447,4.46266 -0.25571,0.2398 -1.19168,0.436 -2.07993,0.436 -0.88825,0 -1.615,0.22023 -1.615,0.48939 0,0.26917 -0.66068,0.4894 -1.46818,0.4894 -0.8075,0 -1.46819,0.22023 -1.46819,0.48939 0,0.26917 -0.77079,0.4894 -1.71288,0.4894 -0.94208,0 -1.71288,0.22023 -1.71288,0.48939 0,0.26917 -0.66068,0.4894 -1.46818,0.4894 -0.8075,0 -1.46818,0.22022 -1.46818,0.48939 0,0.26917 -0.66759,0.48939 -1.48354,0.48939 -0.86725,0 -1.60057,0.30497 -1.76524,0.7341 -0.17382,0.45294 -0.91767,0.73409 -1.94222,0.73409 -0.91329,0 -1.66052,0.22022 -1.66052,0.48939 0,0.26917 -0.64769,0.4894 -1.4393,0.4894 -0.79162,0 -1.57541,0.22022 -1.74176,0.48939 -0.16636,0.26917 -1.06027,0.48939 -1.98647,0.48939 -0.92619,0 -1.68399,0.22023 -1.68399,0.4894 0,0.26917 -0.64769,0.48939 -1.4393,0.48939 -0.79162,0 -1.57541,0.22023 -1.74176,0.4894 -0.16636,0.26916 -1.15738,0.48939 -2.20228,0.48939 -1.04489,0 -2.03592,0.22023 -2.20227,0.4894 -0.16636,0.26916 -1.48772,0.48939 -2.93637,0.48939 -1.44864,0 -2.77001,-0.22023 -2.93636,-0.48939 -0.16636,-0.26917 -1.17038,-0.4894 -2.23116,-0.4894 -1.06078,0 -1.9287,-0.22023 -1.9287,-0.48939 0,-0.26917 -0.44045,-0.4894 -0.97878,-0.4894 -0.53834,0 -0.97879,-0.22022 -0.97879,-0.48939 0,-0.26917 -0.39742,-0.4894 -0.88315,-0.4894 -0.48574,0 -1.72467,-0.77079 -2.75319,-1.71288 -1.02852,-0.94208 -2.06257,-1.71288 -2.29791,-1.71288 -0.23533,0 -0.42788,-0.31435 -0.42788,-0.69857 0,-0.38421 -0.50853,-1.09995 -1.13007,-1.59053 -0.62155,-0.49058 -1.4461,-1.6077 -1.83235,-2.48249 -0.38625,-0.87479 -0.86874,-1.59053 -1.0722,-1.59053 -0.20346,0 -0.36993,-0.42746 -0.36993,-0.94991 0,-0.52244 -0.22022,-1.08601 -0.48939,-1.25237 -0.26917,-0.16635 -0.4894,-0.84003 -0.4894,-1.49706 0,-0.65703 -0.22022,-1.1946 -0.48939,-1.1946 -0.26917,0 -0.48939,-0.29651 -0.48939,-0.6589 0,-0.9812 -1.47124,-3.74565 -1.99342,-3.74565 -0.24946,0 -0.45356,-0.66068 -0.45356,-1.46818 0,-0.80751 -0.22022,-1.46819 -0.48939,-1.46819 -0.26917,0 -0.48939,-0.55057 -0.48939,-1.22348 0,-0.67292 -0.22023,-1.22349 -0.4894,-1.22349 -0.26916,0 -0.48939,-0.42746 -0.48939,-0.9499 0,-0.52245 -0.22023,-1.08602 -0.4894,-1.25237 -0.26916,-0.16636 -0.48939,-0.72993 -0.48939,-1.25237 0,-0.52245 -0.22023,-0.94991 -0.4894,-0.94991 -0.26916,0 -0.48939,-0.42472 -0.48939,-0.94383 0,-0.51911 -0.33034,-1.27417 -0.73409,-1.67792 -0.40375,-0.40375 -0.73409,-1.19028 -0.73409,-1.74784 0,-0.55756 -0.22023,-1.01374 -0.4894,-1.01374 -0.26916,0 -0.48939,-0.44046 -0.48939,-0.97879 0,-0.53834 -0.22023,-0.97879 -0.4894,-0.97879 -0.26916,0 -0.48939,-0.42746 -0.48939,-0.94991 0,-0.52244 -0.22023,-1.08601 -0.48939,-1.25237 -0.26917,-0.16635 -0.4894,-0.82703 -0.4894,-1.46818 0,-0.64114 -0.22023,-1.30183 -0.48939,-1.46818 -0.26917,-0.16636 -0.4894,-0.72992 -0.4894,-1.25237 0,-0.52245 -0.22022,-0.94991 -0.48939,-0.94991 -0.26917,0 -0.4894,-0.44736 -0.4894,-0.99414 0,-0.54679 -0.33034,-1.12092 -0.73409,-1.27585 -0.40375,-0.15493 -0.73409,-0.70158 -0.73409,-1.21477 0,-0.51319 -0.25461,-1.42559 -0.5658,-2.02756 -1.1872,-2.29654 -1.39177,-2.81612 -1.39177,-3.53483 0,-0.4074 -0.22023,-0.74073 -0.4894,-0.74073 -0.26917,0 -0.48939,-0.44046 -0.48939,-0.97879 0,-0.53833 -0.22023,-0.97879 -0.4894,-0.97879 -0.26916,0 -0.49672,-0.49551 -0.50567,-1.10114 -0.0203,-1.3736 -1.58105,-3.30341 -2.67165,-3.30341 -0.71049,0 -0.7826,0.43472 -0.54797,3.30341 0.85811,10.49171 1.06668,12.04267 1.64537,12.23522 0.42436,0.1412 0.61174,1.45642 0.61174,4.29374 0,2.2496 0.22023,4.22629 0.48939,4.39265 0.26917,0.16635 0.4894,2.1614 0.4894,4.43343 0,2.42772 0.20178,4.13097 0.48939,4.13097 0.28761,0 0.4894,1.70325 0.4894,4.13097 0,2.27203 0.22022,4.26707 0.48939,4.43343 0.26917,0.16635 0.4894,2.1614 0.4894,4.43343 0,2.42772 0.20178,4.13097 0.48939,4.13097 0.28276,0 0.48939,1.54975 0.48939,3.67046 0,2.01875 0.19221,3.67045 0.42713,3.67045 0.23492,0 0.53733,1.14689 0.67202,2.54863 0.13469,1.40175 0.49305,2.63135 0.79636,2.73246 0.30331,0.1011 0.55146,0.71603 0.55146,1.36652 0,0.65049 0.22023,1.1827 0.4894,1.1827 0.26917,0 0.48939,0.44046 0.48939,0.97879 0,0.53833 0.22023,0.97879 0.4894,0.97879 0.26916,0 0.48939,0.44045 0.48939,0.97879 0,0.53833 0.22023,0.97879 0.4894,0.97879 0.26916,0 0.48939,0.33034 0.48939,0.73409 0,0.40375 0.22023,0.73409 0.48939,0.73409 0.26917,0 0.4894,0.23761 0.4894,0.52803 0,0.29042 0.99102,1.51905 2.20227,2.7303 1.21125,1.21125 2.20228,2.35136 2.20228,2.53357 0,0.18221 0.71574,0.64368 1.59053,1.02549 0.87479,0.38181 1.9467,1.09626 2.38203,1.58765 0.43532,0.4914 1.15106,0.89345 1.59053,0.89345 0.43947,0 0.79903,0.22023 0.79903,0.48939 0,0.26917 0.52701,0.4894 1.17113,0.4894 0.64412,0 1.29789,0.33034 1.45282,0.73409 0.15494,0.40375 0.82618,0.73409 1.49166,0.73409 0.66548,0 1.34607,0.22023 1.51243,0.4894 0.16635,0.26916 1.48772,0.48939 2.93636,0.48939 1.44865,0 2.77001,0.22023 2.93637,0.48939 0.19845,0.32112 17.54171,0.4894 50.43649,0.4894 33.09643,0 50.13403,0.16631 50.13403,0.48939 0,0.26917 0.7708,0.4894 1.71288,0.4894 0.94209,0 1.71288,0.22022 1.71288,0.48939 0,0.26917 0.33964,0.4894 0.75475,0.4894 0.70611,0 1.20027,0.31296 2.89774,1.83522 0.37518,0.33646 0.91811,0.61175 1.2065,0.61175 0.28839,0 0.52435,0.22022 0.52435,0.48939 0,0.26917 0.27528,0.48966 0.61174,0.48999 0.78615,9.8e-4 3.30341,2.15603 3.30341,2.82835 0,0.28203 0.7708,1.3065 1.71288,2.27658 0.94209,0.97009 1.71288,2.09014 1.71288,2.48899 0,0.39886 0.22023,0.72519 0.4894,0.72519 0.26916,0 0.48939,0.55057 0.48939,1.22348 0,0.67292 0.22023,1.22349 0.4894,1.22349 0.26916,0 0.48939,0.66068 0.48939,1.46818 0,0.8075 0.22023,1.46819 0.48939,1.46819 0.6555,0 0.6555,12.07443 0,12.47955 -0.26916,0.16635 -0.48939,1.06026 -0.48939,1.98646 0,0.9262 -0.22023,1.684 -0.48939,1.684 -0.26917,0 -0.4894,0.64768 -0.4894,1.43929 0,0.79162 -0.22023,1.57541 -0.48939,1.74177 -0.26917,0.16635 -0.4894,0.72992 -0.4894,1.25237 0,0.52245 -0.22022,0.9499 -0.48939,0.9499 -0.26917,0 -0.4894,0.63713 -0.4894,1.41583 0,0.80705 -0.31564,1.53694 -0.73409,1.69752 -0.40375,0.15493 -0.73409,0.72906 -0.73409,1.27584 0,0.54679 -0.22023,0.99415 -0.48939,0.99415 -0.26917,0 -0.4894,0.66068 -0.4894,1.46818 0,0.8075 -0.22022,1.46819 -0.48939,1.46819 -0.26917,0 -0.4894,0.55056 -0.4894,1.22348 0,0.67292 -0.22022,1.22349 -0.48939,1.22349 -0.26917,0 -0.48939,0.66068 -0.48939,1.46818 0,0.8075 -0.22023,1.46818 -0.4894,1.46818 -0.26916,0 -0.48939,0.45619 -0.48939,1.01375 0,0.55756 -0.33034,1.34409 -0.73409,1.74784 -0.40375,0.40375 -0.7341,1.15881 -0.7341,1.67792 0,0.5191 -0.22022,0.94383 -0.48939,0.94383 -0.26917,0 -0.48939,0.55057 -0.48939,1.22349 0,0.67291 -0.22023,1.22348 -0.4894,1.22348 -0.26916,0 -0.48939,0.66068 -0.48939,1.46818 0,0.8075 -0.22023,1.46819 -0.4894,1.46819 -0.26916,0 -0.48939,0.55057 -0.48939,1.22348 0,0.67292 -0.22023,1.22349 -0.4894,1.22349 -0.26916,0 -0.48939,0.66068 -0.48939,1.46818 0,0.8075 -0.22023,1.46818 -0.48939,1.46818 -0.26917,0 -0.4894,0.45619 -0.4894,1.01375 0,0.55756 -0.33034,1.34409 -0.73409,1.74784 -0.40375,0.40375 -0.73409,1.15881 -0.73409,1.67792 0,0.51911 -0.22023,0.94383 -0.48939,0.94383 -0.26917,0 -0.4894,0.53757 -0.4894,1.1946 0,0.65703 -0.22023,1.33071 -0.48939,1.49707 -0.26917,0.16635 -0.4894,0.84004 -0.4894,1.49707 0,0.65703 -0.22023,1.1946 -0.48939,1.1946 -0.26917,0 -0.4894,0.53757 -0.4894,1.1946 0,0.65703 -0.22022,1.33071 -0.48939,1.49707 -0.26917,0.16635 -0.48939,0.74565 -0.48939,1.28732 0,0.54168 -0.33035,1.31521 -0.7341,1.71896 -0.40375,0.40375 -0.73409,1.15881 -0.73409,1.67792 0,0.51911 -0.22023,0.94383 -0.48939,0.94383 -0.26917,0 -0.4894,0.55057 -0.4894,1.22349 0,0.67291 -0.22022,1.22348 -0.48939,1.22348 -0.26917,0 -0.48939,0.66068 -0.48939,1.46818 0,0.80751 -0.22023,1.46819 -0.4894,1.46819 -0.26917,0 -0.48939,0.42745 -0.48939,0.9499 0,0.52245 -0.22023,1.08602 -0.4894,1.25237 -0.26916,0.16636 -0.48939,0.95015 -0.48939,1.74177 0,0.79161 -0.22023,1.43929 -0.4894,1.43929 -0.26916,0 -0.48939,0.41349 -0.48939,0.91887 0,0.50537 -0.33034,1.19302 -0.73409,1.52811 -0.40375,0.33508 -0.73409,1.13284 -0.73409,1.7728 0,0.63996 -0.22023,1.16356 -0.4894,1.16356 -0.26916,0 -0.48939,0.42746 -0.48939,0.94991 0,0.52244 -0.22023,1.08601 -0.4894,1.25237 -0.26916,0.16635 -0.48939,0.95015 -0.48939,1.74176 0,0.79161 -0.22023,1.4393 -0.48939,1.4393 -0.26917,0 -0.4894,0.42746 -0.4894,0.9499 0,0.52245 -0.22023,1.08602 -0.48939,1.25237 -0.26917,0.16636 -0.4894,0.95015 -0.4894,1.74177 0,0.79161 -0.17943,1.4393 -0.39875,1.4393 -0.54762,0 -2.04822,3.23908 -2.04822,4.42115 0,0.5292 -0.22023,0.96218 -0.48939,0.96218 -0.26917,0 -0.4894,0.42746 -0.4894,0.94991 0,0.52245 -0.22022,1.08601 -0.48939,1.25237 -0.26917,0.16635 -0.4894,0.7329 -0.4894,1.25901 0,0.5261 -0.25461,1.44907 -0.5658,2.05104 -1.21793,2.35598 -1.39177,2.82808 -1.39177,3.77952 0,0.54199 -0.20539,0.98543 -0.45642,0.98543 -0.25103,0 -0.59521,0.49551 -0.76485,1.10114 -0.33113,1.18214 -1.07348,3.02438 -1.7722,4.39791 -0.23776,0.46739 -0.43229,1.28024 -0.43229,1.80634 0,0.52611 -0.22023,1.09266 -0.4894,1.25901 -0.26916,0.16636 -0.48939,0.72992 -0.48939,1.25237 0,0.52245 -0.22023,0.94991 -0.4894,0.94991 -0.26916,0 -0.48939,0.77079 -0.48939,1.71288 0,0.94208 -0.22023,1.71288 -0.48939,1.71288 -0.26917,0 -0.4894,0.30337 -0.4894,0.67417 0,0.37079 -0.33034,0.94832 -0.73409,1.2834 -0.40375,0.33509 -0.73409,1.24296 -0.73409,2.0175 0,0.77455 -0.22023,1.40826 -0.4894,1.40826 -0.26916,0 -0.48939,0.44046 -0.48939,0.97879 0,0.53834 -0.22023,0.97879 -0.48939,0.97879 -0.26917,0 -0.4894,0.64768 -0.4894,1.4393 0,0.79161 -0.22023,1.57541 -0.48939,1.74176 -0.26917,0.16636 -0.4894,0.72993 -0.4894,1.25237 0,0.52245 -0.22022,0.94991 -0.48939,0.94991 -0.26917,0 -0.4894,0.63712 -0.4894,1.41582 0,0.80705 -0.31564,1.53695 -0.73409,1.69752 -0.40375,0.15494 -0.73409,0.71607 -0.73409,1.24697 0,0.53089 -0.22023,1.10137 -0.48939,1.26772 -0.26917,0.16636 -0.4894,0.84004 -0.4894,1.49707 0,0.65703 -0.22022,1.1946 -0.48939,1.1946 -0.26917,0 -0.4894,0.55057 -0.4894,1.22349 0,0.67291 -0.22022,1.22348 -0.48939,1.22348 -0.26917,0 -0.48939,0.66068 -0.48939,1.46818 0,0.80751 -0.22023,1.46819 -0.4894,1.46819 -0.26917,0 -0.48939,0.55057 -0.48939,1.22348 0,0.67292 -0.22023,1.22349 -0.4894,1.22349 -0.26916,0 -0.48939,0.63712 -0.48939,1.41582 0,0.77871 -0.28379,1.52472 -0.63063,1.65782 -0.34685,0.1331 -0.93722,1.36791 -1.31195,2.74403 -0.37473,1.37612 -0.86174,2.50203 -1.08225,2.50203 -0.22052,0 -0.40093,0.53757 -0.40093,1.1946 0,0.65703 -0.22023,1.33072 -0.4894,1.49707 -0.26916,0.16635 -0.48939,0.84004 -0.48939,1.49707 0,0.65703 -0.22023,1.1946 -0.48939,1.1946 -0.26917,0 -0.4894,0.44045 -0.4894,0.97879 0,0.53833 -0.21603,0.97879 -0.48007,0.97879 -0.26404,0 -0.61825,0.55056 -0.78715,1.22348 -0.16889,0.67292 -0.50342,1.22349 -0.74341,1.22349 -0.23998,0 -0.43634,0.3521 -0.43634,0.78244 0,0.43033 -0.66068,1.3996 -1.46818,2.15392 -0.8075,0.75432 -1.46819,1.51909 -1.46819,1.69949 0,0.43417 -1.30451,1.72627 -1.74287,1.72627 -0.18952,0 -0.70076,0.3869 -1.13608,0.85979 -0.43533,0.47287 -1.39713,1.17077 -2.13734,1.55088 -0.74021,0.3801 -1.34583,0.87411 -1.34583,1.09779 0,0.22368 -0.44737,0.4067 -0.99415,0.4067 -0.54678,0 -1.12091,0.33034 -1.27584,0.73409 -0.16058,0.41845 -0.89048,0.73409 -1.69753,0.73409 -0.7787,0 -1.41582,0.22023 -1.41582,0.48939 0,0.3021 -2.52854,0.4894 -6.60682,0.4894 -4.07828,0 -6.60682,-0.1873 -6.60682,-0.4894 z m -3.91516,-275.52897 c 0,-0.26917 0.66068,-0.4894 1.46819,-0.4894 0.8075,0 1.46818,-0.22022 1.46818,-0.48939 0,-0.26917 0.77079,-0.4894 1.71288,-0.4894 0.94208,0 1.71288,-0.22022 1.71288,-0.48939 0,-0.26917 0.44045,-0.48939 0.97879,-0.48939 0.71778,0 0.97879,-0.32627 0.97879,-1.22349 0,-0.67292 -0.22023,-1.22349 -0.4894,-1.22349 -0.26917,0 -0.48939,-0.39183 -0.48939,-0.87075 0,-0.47891 -0.44046,-1.18821 -0.97879,-1.57622 -0.53834,-0.38801 -0.97879,-0.94131 -0.97879,-1.22956 0,-0.28825 -0.7708,-1.34128 -1.71288,-2.34007 -0.94208,-0.99878 -1.71288,-2.09719 -1.71288,-2.44089 0,-0.34371 -0.44046,-0.94238 -0.97879,-1.33039 -0.53833,-0.38801 -0.97879,-0.96829 -0.97879,-1.28951 0,-0.32122 -0.77079,-1.37775 -1.71288,-2.34784 -0.94208,-0.97008 -1.71288,-1.98922 -1.71288,-2.26475 0,-0.27553 -0.40523,-0.93592 -0.90051,-1.46754 -0.49528,-0.53162 -1.21102,-1.56849 -1.59053,-2.30416 -0.85984,-1.66675 -1.68671,-2.56106 -2.36794,-2.56106 -0.2884,0 -0.52487,-0.3854 -0.5255,-0.85644 -4.9e-4,-0.47104 -0.6608,-1.62723 -1.46704,-2.56932 -0.80624,-0.94208 -1.4664,-1.88766 -1.46703,-2.10128 -4.9e-4,-0.21363 -0.55172,-0.98217 -1.22464,-1.70788 -0.67291,-0.72571 -1.22348,-1.4889 -1.22348,-1.69598 0,-0.20707 -0.66068,-1.06784 -1.46818,-1.91281 -0.8075,-0.84497 -1.46819,-1.79986 -1.46819,-2.12197 0,-0.94025 -1.85236,-2.35064 -2.67344,-2.03556 -0.95351,0.3659 -0.97192,2.28897 -0.0338,3.52929 0.39518,0.52249 0.72552,1.33537 0.73409,1.80641 0.009,0.47105 0.23579,0.85644 0.50496,0.85644 0.26916,0 0.48939,0.33333 0.48939,0.74074 0,0.4074 0.19453,1.12314 0.4323,1.59053 0.23778,0.46739 0.70393,1.51048 1.03591,2.31798 0.33197,0.8075 0.79812,1.85059 1.03588,2.31798 0.23777,0.46739 0.4323,1.19004 0.4323,1.6059 0,0.41584 0.33034,0.88285 0.73409,1.03778 0.40375,0.15494 0.73409,0.69859 0.73409,1.20813 0,0.50953 0.22023,0.92643 0.4894,0.92643 0.26916,0 0.48939,0.66068 0.48939,1.46818 0,0.8075 0.22023,1.46818 0.4894,1.46818 0.26916,0 0.48939,0.55057 0.48939,1.22349 0,0.67292 0.22023,1.22348 0.48939,1.22348 0.26917,0 0.4894,0.44046 0.4894,0.97879 0,0.53834 0.22023,0.97879 0.48939,0.97879 0.26917,0 0.4894,0.55057 0.4894,1.22349 0,0.67291 0.22022,1.22348 0.48939,1.22348 0.26917,0 0.4894,0.42473 0.4894,0.94383 0,0.51911 0.33034,1.27418 0.73409,1.67793 0.40375,0.40375 0.73409,1.06716 0.73409,1.47425 0,0.4071 0.22023,0.87628 0.48939,1.04263 0.26917,0.16636 0.4894,0.72992 0.4894,1.25237 0,0.52245 0.22022,0.94991 0.48939,0.94991 0.26917,0 0.4894,0.44045 0.4894,0.97879 0,0.53833 0.22022,0.97878 0.48939,0.97878 0.26917,0 0.48939,0.51674 0.48939,1.1483 0,0.63156 0.34648,1.84281 0.76994,2.69167 0.60095,1.20463 1.08431,1.54337 2.20227,1.54337 0.78779,0 1.43234,-0.22023 1.43234,-0.48939 z"
         id="path17021" /><path
         style="fill:#fcb813;fill-opacity:1;stroke:#fcb813;stroke-width:0.431646;stroke-miterlimit:1.5;stroke-dasharray:none;stroke-opacity:1"
         d="m 200.40696,168.35163 c -0.40375,-0.26092 -2.55097,-0.47778 -4.7716,-0.4819 -2.36041,-0.004 -4.0375,-0.21078 -4.0375,-0.49689 0,-0.26916 -0.7708,-0.48939 -1.71288,-0.48939 -0.94209,0 -1.71288,-0.22023 -1.71288,-0.4894 0,-0.26916 -0.7708,-0.48939 -1.71288,-0.48939 -0.94209,0 -1.71288,-0.22023 -1.71288,-0.4894 0,-0.26916 -0.66068,-0.48939 -1.46818,-0.48939 -0.8075,0 -1.46819,-0.22023 -1.46819,-0.48939 0,-0.26917 -0.33034,-0.4894 -0.73409,-0.4894 -0.40375,0 -0.73409,-0.18479 -0.73409,-0.41066 0,-0.22586 -0.87838,-0.83148 -1.95196,-1.34583 -1.07358,-0.51435 -1.95449,-1.10035 -1.95758,-1.30222 -0.003,-0.20188 -0.39745,-0.36705 -0.87636,-0.36705 -0.47892,0 -1.18822,-0.44045 -1.57623,-0.97879 -0.388,-0.53833 -0.88495,-0.97878 -1.10431,-0.97878 -0.39569,0 -1.2653,-0.7304 -4.51577,-3.79281 -0.92851,-0.87479 -1.86201,-1.59053 -2.07444,-1.59053 -0.21244,0 -0.66769,-0.63582 -1.01167,-1.41293 -0.34398,-0.77711 -1.22359,-2.0469 -1.95469,-2.82176 -1.59075,-1.68594 -4.02094,-5.33165 -4.02094,-6.0321 0,-0.27494 -0.22023,-0.49989 -0.4894,-0.49989 -0.26916,0 -0.48939,-0.44045 -0.48939,-0.97878 0,-0.53834 -0.22023,-0.97879 -0.4894,-0.97879 -0.26916,0 -0.48939,-0.55057 -0.48939,-1.22349 0,-0.67292 -0.19613,-1.22348 -0.43585,-1.22348 -0.23972,0 -0.54957,-0.71574 -0.68856,-1.59054 -0.46999,-2.95815 -1.26814,-5.48754 -1.78607,-5.66018 -0.2894,-0.0965 -0.51528,-1.54835 -0.51528,-3.31204 0,-1.76726 -0.21398,-3.14028 -0.48939,-3.14028 -0.29002,0 -0.4894,-1.79445 -0.4894,-4.40455 0,-2.61011 0.19938,-4.40455 0.4894,-4.40455 0.27252,0 0.48939,-1.3167 0.48939,-2.97132 0,-1.98865 0.24278,-3.2141 0.73409,-3.70542 0.40375,-0.40375 0.73409,-1.25593 0.73409,-1.89374 0,-0.6378 0.22023,-1.29575 0.4894,-1.4621 0.26916,-0.16636 0.48939,-0.93715 0.48939,-1.71288 0,-0.77573 0.22023,-1.54653 0.4894,-1.71288 0.26916,-0.16636 0.48939,-0.72992 0.48939,-1.25237 0,-0.52245 0.22023,-0.949908 0.48939,-0.949908 0.26917,0 0.4894,-0.398928 0.4894,-0.886508 0,-0.487579 0.3854,-1.313432 0.85644,-1.835228 0.47104,-0.521796 1.29689,-1.816092 1.83523,-2.876213 0.53833,-1.06012 1.80464,-2.793438 2.81401,-3.851817 1.00938,-1.05838 1.83523,-2.12682 1.83523,-2.374311 0,-0.572406 3.92438,-4.325934 4.52284,-4.325934 0.24661,0 1.4394,-0.991023 2.65065,-2.202274 1.21125,-1.211251 2.51523,-2.202274 2.89773,-2.202274 0.3825,0 0.69546,-0.220228 0.69546,-0.489395 0,-0.269167 0.44045,-0.489394 0.97878,-0.489394 0.53834,0 0.97879,-0.220227 0.97879,-0.489394 0,-0.269167 0.32365,-0.489395 0.71921,-0.489395 0.39556,0 1.5034,-0.440454 2.46186,-0.978788 0.95845,-0.538334 2.0732,-0.978789 2.47721,-0.978789 0.40401,0 0.86133,-0.330341 1.01627,-0.734091 0.1587,-0.413572 0.88726,-0.734091 1.66863,-0.734091 0.76282,0 1.52305,-0.220228 1.68941,-0.489395 0.16635,-0.269167 1.01621,-0.489394 1.88858,-0.489394 0.87236,0 1.81185,-0.225733 2.08774,-0.501629 0.68111,-0.681107 18.95723,-0.681107 19.18426,0 0.092,0.275896 0.91966,0.501629 1.83931,0.501629 0.91965,0 1.67209,0.220227 1.67209,0.489394 0,0.269167 0.5663,0.489395 1.25845,0.489395 0.69214,0 1.58878,0.330341 1.99253,0.734091 0.40375,0.40375 1.26893,0.734091 1.92262,0.734091 0.65369,0 1.18853,0.220228 1.18853,0.489395 0,0.269166 0.44045,0.489394 0.97879,0.489394 0.53833,0 0.97879,0.220227 0.97879,0.489394 0,0.269167 0.33034,0.489394 0.73409,0.489394 0.40375,0 0.73409,0.220228 0.73409,0.489395 0,0.269167 0.44045,0.489394 0.97879,0.489394 0.53833,0 0.97879,0.220227 0.97879,0.489394 0,0.269167 0.29953,0.489395 0.66563,0.489395 0.3661,0 1.48292,0.770796 2.48182,1.71288 0.9989,0.942084 2.03435,1.712879 2.301,1.712879 0.59077,0 7.2758,6.808994 7.2758,7.410719 0,0.235675 0.66068,1.119839 1.46818,1.964811 0.8075,0.844972 1.46818,1.840903 1.46818,2.21318 0,0.372276 0.33034,0.80363 0.73409,0.958564 0.40376,0.154933 0.7341,0.69859 0.7341,1.208126 0,0.509536 0.22022,0.926429 0.48939,0.926429 0.26917,0 0.48939,0.351401 0.48939,0.780892 0,0.42949 0.40915,1.365457 0.90921,2.079927 0.86689,1.23857 1.25539,2.42122 1.8736,5.70358 0.15209,0.8075 0.44419,1.68841 0.64911,1.95758 0.20492,0.26916 0.52694,1.42536 0.71562,2.56932 0.18867,1.14396 0.54392,2.07992 0.78943,2.07992 0.2497,0 0.44637,3.34215 0.44637,7.58561 0,4.49079 -0.19062,7.58562 -0.46722,7.58562 -0.25696,0 -0.59934,0.82585 -0.76083,1.83522 -0.16148,1.00938 -0.5018,2.21764 -0.75626,2.68503 -0.25447,0.46739 -0.46266,1.39036 -0.46266,2.05104 0,0.66069 -0.22023,1.33736 -0.48939,1.50371 -0.26917,0.16636 -0.4894,0.95015 -0.4894,1.74177 0,0.79161 -0.17912,1.43929 -0.39805,1.43929 -0.21893,0 -0.70049,0.7708 -1.07013,1.71288 -0.36965,0.94209 -0.8512,1.71288 -1.07014,1.71288 -0.21892,0 -0.39804,0.44046 -0.39804,0.97879 0,0.53834 -0.20539,0.97879 -0.45642,0.97879 -0.25103,0 -0.61287,0.49551 -0.8041,1.10114 -0.19122,0.60562 -0.75663,1.45731 -1.25646,1.89263 -0.49983,0.43532 -0.90878,1.04095 -0.90878,1.34584 0,0.30488 -0.22023,0.55433 -0.4894,0.55433 -0.26916,0 -0.48939,0.33035 -0.48939,0.7341 0,0.40375 -0.22023,0.73409 -0.4894,0.73409 -0.26916,0 -0.48939,0.23595 -0.48939,0.52435 0,0.55974 -1.20098,1.92262 -1.69423,1.92262 -0.38587,0 -3.68911,3.30323 -3.68911,3.6891 0,0.54266 -1.38946,1.69423 -2.04497,1.69483 -0.35568,3.3e-4 -1.27925,0.54461 -2.05237,1.2095 -0.77313,0.6649 -1.81921,1.34015 -2.32463,1.50057 -0.50542,0.16041 -0.91894,0.49705 -0.91894,0.74808 0,0.25102 -0.44737,0.45641 -0.99415,0.45641 -0.54678,0 -1.12091,0.33034 -1.27584,0.73409 -0.15494,0.40375 -0.69859,0.73409 -1.20813,0.73409 -0.50954,0 -0.92643,0.22023 -0.92643,0.4894 0,0.26916 -0.53757,0.48939 -1.1946,0.48939 -0.65703,0 -1.33071,0.22023 -1.49707,0.48939 -0.16635,0.26917 -1.06026,0.4894 -1.98646,0.4894 -0.9262,0 -1.684,0.22023 -1.684,0.48939 0,0.26917 -0.64768,0.4894 -1.43929,0.4894 -0.79162,0 -1.57541,0.22023 -1.74177,0.48939 -0.16635,0.26917 -2.03829,0.4894 -4.15985,0.4894 -2.12156,0 -3.9935,0.22022 -4.15985,0.48939 -0.38368,0.6208 -2.22045,0.6208 -3.18106,0 z"
         id="path17023" /><path
         style="fill:#205eab;fill-opacity:1;stroke:#205eab;stroke-width:0.431646;stroke-miterlimit:1.5;stroke-dasharray:none;stroke-opacity:1"
         d="m 56.769736,534.41855 c -0.166354,-0.26917 -0.840034,-0.4894 -1.497065,-0.4894 -0.657032,0 -1.194604,-0.22022 -1.194604,-0.48939 0,-0.26917 -0.230238,-0.48939 -0.511639,-0.48939 -0.5636,0 -2.914121,-2.20554 -2.914121,-2.73437 0,-0.18254 -0.464575,-0.73481 -1.032389,-1.22728 -0.913785,-0.79252 -1.030741,-1.41606 -1.018044,-5.42765 0.0089,-2.79859 0.216564,-4.59968 0.542995,-4.70849 0.290757,-0.0969 0.52865,-0.69543 0.52865,-1.33004 0,-0.63459 0.220227,-1.28992 0.489394,-1.45628 0.269167,-0.16635 0.489394,-0.84003 0.489394,-1.49706 0,-0.65704 0.220228,-1.19461 0.489395,-1.19461 0.269167,0 0.489394,-0.66068 0.489394,-1.46818 0,-0.8075 0.220227,-1.46818 0.489394,-1.46818 0.269167,0 0.489395,-0.45619 0.489395,-1.01375 0,-0.55755 0.330341,-1.34408 0.734091,-1.74783 0.40375,-0.40375 0.734091,-1.15882 0.734091,-1.67793 0,-0.5191 0.220228,-0.94383 0.489395,-0.94383 0.269167,0 0.489394,-0.33381 0.489394,-0.7418 0,-1.18667 1.181516,-4.64154 1.58734,-4.64154 0.20363,0 0.370237,-0.64768 0.370237,-1.43929 0,-0.79162 0.220227,-1.57541 0.489394,-1.74177 0.269167,-0.16635 0.489395,-0.72992 0.489395,-1.25237 0,-0.52245 0.220227,-0.9499 0.489394,-0.9499 0.269167,0 0.489394,-0.63712 0.489394,-1.41582 0,-0.80705 0.315645,-1.53695 0.734092,-1.69753 0.40375,-0.15493 0.734091,-0.73205 0.734091,-1.28248 0,-0.96606 0.172359,-1.43603 1.391775,-3.79489 0.311191,-0.60197 0.565802,-1.64805 0.565802,-2.32462 0,-0.67657 0.220228,-1.23012 0.489394,-1.23012 0.269167,0 0.489395,-0.42746 0.489395,-0.94991 0,-0.52245 0.220227,-1.08601 0.489394,-1.25237 0.269167,-0.16635 0.489394,-0.95015 0.489394,-1.74176 0,-0.79162 0.177845,-1.4393 0.395212,-1.4393 0.493816,0 2.05176,-3.46933 2.05176,-4.569 0,-0.44789 0.220227,-0.81434 0.489394,-0.81434 0.269167,0 0.489394,-0.66068 0.489394,-1.46818 0,-0.8075 0.220228,-1.46818 0.489394,-1.46818 0.269167,0 0.489395,-0.55057 0.489395,-1.22349 0,-0.67292 0.220227,-1.22349 0.489394,-1.22349 0.269167,0 0.489394,-0.66068 0.489394,-1.46818 0,-0.8075 0.220228,-1.46818 0.489394,-1.46818 0.269167,0 0.489395,-0.45619 0.489395,-1.01375 0,-0.55755 0.330341,-1.34408 0.734091,-1.74783 0.40375,-0.40376 0.734092,-1.15882 0.734092,-1.67793 0,-0.5191 0.220227,-0.94383 0.489394,-0.94383 0.269167,0 0.489394,-0.64768 0.489394,-1.4393 0,-0.79161 0.220228,-1.57541 0.489394,-1.74176 0.269167,-0.16636 0.489395,-0.72992 0.489395,-1.25237 0,-0.52245 0.220227,-0.94991 0.489394,-0.94991 0.269167,0 0.489394,-0.66068 0.489394,-1.46818 0,-0.8075 0.220228,-1.46818 0.489395,-1.46818 0.269166,0 0.489394,-0.55057 0.489394,-1.22349 0,-0.67291 0.220227,-1.22348 0.489394,-1.22348 0.269167,0 0.489394,-0.52361 0.489394,-1.16357 0,-0.63995 0.330341,-1.43771 0.734092,-1.7728 0.40375,-0.33508 0.734091,-1.24296 0.734091,-2.0175 0,-0.77454 0.220228,-1.40826 0.489394,-1.40826 0.269167,0 0.489395,-0.42745 0.489395,-0.9499 0,-0.52245 0.220227,-1.08602 0.489394,-1.25237 0.269167,-0.16636 0.489394,-0.95015 0.489394,-1.74177 0,-0.79161 0.220228,-1.4393 0.489395,-1.4393 0.269166,0 0.489394,-0.42745 0.489394,-0.9499 0,-0.52245 0.220227,-1.08601 0.489394,-1.25237 0.269167,-0.16635 0.489394,-0.92658 0.489394,-1.6894 0,-0.78137 0.320519,-1.50994 0.734092,-1.66864 0.40375,-0.15493 0.734091,-0.79513 0.734091,-1.42267 0,-0.62753 0.245084,-1.38604 0.544632,-1.68559 0.957995,-0.958 -0.04463,-1.6087 -2.478733,-1.6087 -1.651407,0 -2.450783,-0.22166 -2.647425,-0.7341 -0.154934,-0.40375 -0.729064,-0.73409 -1.275845,-0.73409 -0.546782,0 -0.994149,-0.22023 -0.994149,-0.48939 0,-0.26917 -0.339549,-0.4894 -0.754554,-0.4894 -0.415005,0 -1.227328,-0.44045 -1.805161,-0.97878 -0.577833,-0.53834 -1.339421,-0.97879 -1.692417,-0.97879 -0.352996,0 -0.64181,-0.18654 -0.64181,-0.41452 0,-0.22797 -0.385398,-0.87011 -0.85644,-1.42697 -0.471042,-0.55685 -1.241838,-1.47397 -1.71288,-2.03805 -0.471042,-0.56408 -0.85644,-1.35342 -0.85644,-1.75409 0,-0.40067 -0.220228,-0.7285 -0.489395,-0.7285 -0.269166,0 -0.489394,-0.42746 -0.489394,-0.9499 0,-0.52245 -0.220227,-1.08602 -0.489394,-1.25237 -0.269167,-0.16636 -0.489394,-1.2675 -0.489394,-2.44697 0,-1.17948 -0.191767,-2.26303 -0.426149,-2.40789 -0.234382,-0.14485 -0.53679,-1.41485 -0.67202,-2.82221 -0.135229,-1.40736 -0.494031,-2.64155 -0.797337,-2.74266 -0.318528,-0.10617 -0.551466,-1.30354 -0.551466,-2.8347 0,-1.45799 -0.220227,-2.65089 -0.489394,-2.65089 -0.269167,0 -0.489394,-1.21125 -0.489394,-2.69167 0,-1.48041 -0.220228,-2.69166 -0.489395,-2.69166 -0.269166,0 -0.489394,-1.21126 -0.489394,-2.69167 0,-1.48042 -0.220227,-2.69167 -0.489394,-2.69167 -0.269167,0 -0.489394,-1.21125 -0.489394,-2.69167 0,-1.48042 -0.220228,-2.69167 -0.489395,-2.69167 -0.269167,0 -0.489394,-1.07417 -0.489394,-2.38705 0,-1.52478 -0.265173,-2.60712 -0.734091,-2.99629 -0.48599,-0.40333 -0.734092,-1.49869 -0.734092,-3.24098 0,-1.44746 -0.220227,-2.63175 -0.489394,-2.63175 -0.269167,0 -0.489394,-1.21125 -0.489394,-2.69167 0,-1.48041 -0.220228,-2.69166 -0.489395,-2.69166 -0.269167,0 -0.489394,-1.21125 -0.489394,-2.69167 0,-1.48042 -0.220227,-2.69167 -0.489394,-2.69167 -0.269167,0 -0.489394,-1.21125 -0.489394,-2.69167 0,-1.48042 -0.220228,-2.69167 -0.489395,-2.69167 -0.269167,0 -0.489394,-1.08814 -0.489394,-2.41808 0,-1.32995 -0.220227,-2.5542 -0.489394,-2.72056 -0.269167,-0.16635 -0.489395,-1.26475 -0.489395,-2.4409 0,-1.2483 -0.305567,-2.444 -0.734091,-2.87252 -0.459525,-0.45953 -0.734091,-1.66239 -0.734091,-3.21602 0,-1.36506 -0.220228,-2.48193 -0.489395,-2.48193 -0.269167,0 -0.489394,-1.21125 -0.489394,-2.69167 0,-1.48041 -0.220227,-2.69167 -0.489394,-2.69167 -0.269167,0 -0.489395,-1.21125 -0.489395,-2.69166 0,-1.48042 -0.220227,-2.69167 -0.489394,-2.69167 -0.269167,0 -0.489394,-1.21125 -0.489394,-2.69167 0,-1.48042 -0.220227,-2.69167 -0.489394,-2.69167 -0.269167,0 -0.489395,-1.07417 -0.489395,-2.38705 0,-1.52478 -0.265173,-2.60712 -0.734091,-2.99629 -0.466669,-0.3873 -0.734091,-1.46829 -0.734091,-2.9674 0,-1.29699 -0.220228,-2.49428 -0.489395,-2.66063 -0.269167,-0.16636 -0.489394,-1.50072 -0.489394,-2.96525 0,-1.46453 -0.220227,-2.66279 -0.489394,-2.66279 -0.269167,0 -0.489395,-1.21125 -0.489395,-2.69166 0,-1.48042 -0.220227,-2.69167 -0.489394,-2.69167 -0.269167,0 -0.489394,-1.21125 -0.489394,-2.69167 0,-1.48042 -0.220228,-2.69167 -0.489394,-2.69167 -0.269167,0 -0.489395,-1.08814 -0.489395,-2.41809 0,-1.32995 -0.220227,-2.55419 -0.489394,-2.72055 -0.269167,-0.16635 -0.489394,-1.26476 -0.489394,-2.4409 0,-1.2483 -0.305568,-2.444 -0.734092,-2.87252 -0.459525,-0.45953 -0.734091,-1.66239 -0.734091,-3.21602 0,-1.36506 -0.220227,-2.48193 -0.489394,-2.48193 -0.269167,0 -0.489395,-1.21125 -0.489395,-2.69167 0,-1.48042 -0.220227,-2.69167 -0.489394,-2.69167 -0.269167,0 -0.489394,-1.21125 -0.489394,-2.69167 0,-1.48041 -0.220228,-2.69166 -0.489394,-2.69166 -0.269167,0 -0.489395,-1.21126 -0.489395,-2.69167 0,-1.48042 -0.220227,-2.69167 -0.489394,-2.69167 -0.269167,0 -0.489394,-1.08814 -0.489394,-2.41809 0,-1.32995 -0.210051,-2.54791 -0.466779,-2.70657 -0.256729,-0.15867 -0.615516,-1.60315 -0.797305,-3.20995 -0.181789,-1.6068 -0.522307,-2.92146 -0.756707,-2.92146 -0.234399,0 -0.426181,-1.21125 -0.426181,-2.69167 0,-1.48042 -0.220227,-2.69167 -0.489394,-2.69167 -0.269167,0 -0.489394,-1.21125 -0.489394,-2.69167 0,-1.48041 -0.220228,-2.69166 -0.489394,-2.69166 -0.269167,0 -0.489395,-1.21125 -0.489395,-2.69167 0,-1.48042 -0.220227,-2.69167 -0.489394,-2.69167 -0.644767,0 -0.644767,-7.67652 0,-8.07501 0.269167,-0.16635 0.489394,-0.95014 0.489394,-1.74176 0,-0.79161 0.220228,-1.4393 0.489395,-1.4393 0.269166,0 0.489394,-0.39184 0.489394,-0.87075 0,-0.47891 0.440455,-1.18821 0.978788,-1.57622 0.538334,-0.38801 0.978789,-0.94881 0.978789,-1.24622 0,-0.64987 2.070945,-2.66893 2.737521,-2.66893 0.259689,0 0.789624,-0.44046 1.177633,-0.97879 0.388009,-0.53834 1.084311,-0.97879 1.547339,-0.97879 0.463027,0 0.977975,-0.22023 1.14433,-0.4894 0.166354,-0.26916 0.827036,-0.48939 1.468182,-0.48939 0.641147,0 1.301829,-0.22023 1.468183,-0.48939 0.398488,-0.64477 8.075006,-0.64477 8.075006,0 0,0.26916 0.660682,0.48939 1.468183,0.48939 0.8075,0 1.468183,0.22023 1.468183,0.48939 0,0.26917 0.440454,0.4894 0.978788,0.4894 0.538334,0 0.978789,0.22023 0.978789,0.48939 0,0.26917 0.275284,0.49416 0.611742,0.49997 0.336459,0.006 1.272426,0.8019 2.079926,1.76906 0.807501,0.96717 1.963695,2.27376 2.56932,2.90355 0.605625,0.62978 1.101137,1.48541 1.101137,1.90139 0,0.41599 0.330341,0.75634 0.734092,0.75634 0.530177,0 0.734091,0.54377 0.734091,1.95758 0,1.07667 0.220227,1.95758 0.489394,1.95758 0.269167,0 0.489395,1.10113 0.489395,2.44697 0,1.34583 0.220227,2.44697 0.489394,2.44697 0.269167,0 0.489394,1.19825 0.489394,2.66278 0,1.46454 0.220228,2.7989 0.489394,2.96525 0.269167,0.16636 0.489395,1.34656 0.489395,2.62267 0,1.27612 0.198875,2.52943 0.441946,2.78514 0.243071,0.25571 0.558922,1.45595 0.701891,2.6672 0.559573,4.74074 1.272825,8.0649 1.765705,8.22919 0.28392,0.0946 0.516218,1.36497 0.516218,2.82296 0,1.45799 0.220227,2.65089 0.489394,2.65089 0.269167,0 0.489394,1.21125 0.489394,2.69167 0,1.48041 0.220228,2.69166 0.489394,2.69166 0.269167,0 0.489395,1.21126 0.489395,2.69167 0,1.48042 0.220227,2.69167 0.489394,2.69167 0.269167,0 0.489394,1.21125 0.489394,2.69167 0,1.48042 0.220228,2.69167 0.489395,2.69167 0.269166,0 0.489394,1.10805 0.489394,2.46233 0,1.73728 0.216159,2.54528 0.734091,2.74403 0.526957,0.20221 0.734092,1.02641 0.734092,2.921 0,1.45162 0.220227,2.63931 0.489394,2.63931 0.269167,0 0.489394,1.21125 0.489394,2.69167 0,1.48042 0.220228,2.69167 0.489394,2.69167 0.269167,0 0.489395,1.19825 0.489395,2.66278 0,1.46454 0.220227,2.7989 0.489394,2.96525 0.269167,0.16636 0.489394,1.34656 0.489394,2.62268 0,1.27611 0.198875,2.52942 0.441948,2.78513 0.243067,0.25571 0.563043,1.45595 0.711055,2.6672 0.710669,5.81575 1.169114,8.03339 1.697107,8.20938 0.346805,0.11561 0.57565,1.24572 0.57565,2.84277 0,1.45799 0.220228,2.65089 0.489394,2.65089 0.269167,0 0.489395,1.21125 0.489395,2.69167 0,1.48042 0.220227,2.69167 0.489394,2.69167 0.269167,0 0.489394,1.21125 0.489394,2.69166 0,1.48042 0.220228,2.69167 0.489395,2.69167 0.269166,0 0.489394,1.21125 0.489394,2.69167 0,1.48042 0.220227,2.69167 0.489394,2.69167 0.269167,0 0.489394,1.10805 0.489394,2.46233 0,1.73728 0.216161,2.54528 0.734092,2.74403 0.526955,0.20221 0.734091,1.02641 0.734091,2.92101 0,1.45161 0.220228,2.6393 0.489394,2.6393 0.269167,0 0.489395,1.21125 0.489395,2.69167 0,1.48042 0.220227,2.69167 0.489394,2.69167 0.269167,0 0.489394,1.21125 0.489394,2.69167 0,1.48042 0.220228,2.69167 0.489395,2.69167 0.269166,0 0.489394,1.21125 0.489394,2.69167 0,1.48041 0.220227,2.69167 0.489394,2.69167 0.269167,0 0.489394,1.19825 0.489394,2.66278 0,1.46453 0.220228,2.79889 0.489395,2.96525 0.269167,0.16635 0.489394,1.26476 0.489394,2.4409 0,1.2483 0.305568,2.444 0.734091,2.87252 0.459527,0.45953 0.734092,1.66239 0.734092,3.21602 0,1.36506 0.220227,2.48193 0.489394,2.48193 0.269167,0 0.489394,1.21125 0.489394,2.69167 0,1.48042 0.220228,2.69167 0.489395,2.69167 0.269166,0 0.489394,1.21125 0.489394,2.69167 0,1.48041 0.220227,2.69166 0.489394,2.69166 0.269167,0 0.489394,0.33035 0.489394,0.7341 0,0.64323 3.286144,0.73685 26.549644,0.7564 26.04342,0.0219 95.66043,1.92953 98.12355,2.68878 0.60562,0.18669 1.10114,0.53397 1.10114,0.77175 0,0.23777 0.23595,0.43231 0.52435,0.43231 0.57786,0 1.92262,1.20742 1.92262,1.72627 0,0.1804 0.62177,0.91187 1.38171,1.62549 0.75994,0.71362 1.69591,2.37123 2.07992,3.68359 0.38402,1.31236 0.9735,2.49212 1.30996,2.62168 0.90151,0.34716 0.79015,6.95005 -0.13791,8.17705 -0.39519,0.52249 -0.71853,1.34834 -0.71853,1.83523 0,0.48689 -0.22023,0.88525 -0.48939,0.88525 -0.26917,0 -0.4894,0.44046 -0.4894,0.97879 0,0.53833 -0.22023,0.97879 -0.48939,0.97879 -0.26917,0 -0.4894,0.33034 -0.4894,0.73409 0,0.40375 -0.22022,0.73409 -0.48939,0.73409 -0.26917,0 -0.48939,0.34607 -0.48939,0.76905 0,0.42297 -0.31462,1.08366 -0.69914,1.46818 -0.38453,0.38452 -1.04521,0.69914 -1.46818,0.69914 -0.42298,0 -0.76905,0.22022 -0.76905,0.48939 0,0.26917 -0.33034,0.4894 -0.73409,0.4894 -0.40375,0 -0.73409,0.16646 -0.73409,0.36992 0,0.37608 -1.79705,1.23918 -3.79281,1.82164 -0.60562,0.17675 -1.10114,0.52675 -1.10114,0.77778 0,0.25103 -0.99102,0.45642 -2.20227,0.45642 -2.12071,0 -2.20227,0.0544 -2.20227,1.46818 0,0.8075 0.22022,1.46818 0.48939,1.46818 0.26917,0 0.48939,0.44046 0.48939,0.97879 0,0.53833 0.22023,0.97879 0.4894,0.97879 0.26917,0 0.48939,0.77079 0.48939,1.71288 0,0.94208 0.22023,1.71288 0.4894,1.71288 0.26916,0 0.48939,0.42745 0.48939,0.9499 0,0.52245 0.22023,1.08602 0.4894,1.25237 0.26916,0.16636 0.48939,0.82704 0.48939,1.46818 0,0.64115 0.22023,1.30183 0.48939,1.46819 0.26917,0.16635 0.4894,0.71419 0.4894,1.21741 0,0.50322 0.33034,1.24529 0.73409,1.64904 0.40375,0.40375 0.73409,1.19028 0.73409,1.74784 0,0.55756 0.22023,1.01374 0.4894,1.01374 0.26916,0 0.48939,0.66068 0.48939,1.46818 0,0.80751 0.22023,1.46819 0.48939,1.46819 0.26917,0 0.4894,0.55057 0.4894,1.22348 0,0.67292 0.18488,1.22349 0.41083,1.22349 0.22597,0 0.6562,0.5385 0.95609,1.19667 0.47673,1.04632 -0.23586,3.13662 -5.67183,16.63743 -3.41939,8.49242 -6.28828,15.11131 -6.3753,14.70865 -0.087,-0.40267 -0.36231,-0.73212 -0.61174,-0.73212 -0.24944,0 -0.45351,-0.44345 -0.45351,-0.98543 0,-0.54199 -0.19454,-1.36784 -0.4323,-1.83523 -0.69872,-1.37353 -1.44107,-3.21577 -1.7722,-4.39791 -0.16964,-0.60562 -0.51382,-1.10114 -0.76485,-1.10114 -0.25103,0 -0.45641,-0.55056 -0.45641,-1.22348 0,-0.67292 -0.22023,-1.22349 -0.4894,-1.22349 -0.26917,0 -0.48939,-0.66068 -0.48939,-1.46818 0,-0.8075 -0.22023,-1.46818 -0.4894,-1.46818 -0.26916,0 -0.48939,-0.53757 -0.48939,-1.1946 0,-0.65704 -0.22023,-1.33072 -0.4894,-1.49707 -0.26916,-0.16636 -0.48939,-0.84004 -0.48939,-1.49707 0,-0.65703 -0.22023,-1.1946 -0.48939,-1.1946 -0.26917,0 -0.4894,-0.36645 -0.4894,-0.81434 0,-1.09967 -1.55794,-4.569 -2.05176,-4.569 -0.21736,0 -0.39521,-0.66068 -0.39521,-1.46818 0,-0.8075 -0.22023,-1.46818 -0.48939,-1.46818 -0.26917,0 -0.4894,-0.53757 -0.4894,-1.1946 0,-0.65704 -0.22023,-1.33072 -0.48939,-1.49707 -0.26917,-0.16636 -0.4894,-0.84004 -0.4894,-1.49707 0,-0.65703 -0.22022,-1.1946 -0.48939,-1.1946 -0.26917,0 -0.4894,-0.64768 -0.4894,-1.4393 0,-0.79161 -0.22022,-1.57541 -0.48939,-1.74176 -0.26917,-0.16636 -0.48939,-0.72992 -0.48939,-1.25237 0,-0.52245 -0.33035,-0.94991 -0.7341,-0.94991 -0.51269,0 -0.73409,-0.51658 -0.73409,-1.71288 0,-0.94208 -0.22022,-1.71288 -0.48939,-1.71288 -0.26917,0 -0.4894,-0.42745 -0.4894,-0.9499 0,-0.52245 -0.22022,-1.08602 -0.48939,-1.25237 -0.26917,-0.16636 -0.48939,-0.95015 -0.48939,-1.74176 0,-0.79162 -0.22023,-1.4393 -0.4894,-1.4393 -0.26917,0 -0.48939,-0.44345 -0.48939,-0.98543 0,-0.54199 -0.20172,-1.36784 -0.44825,-1.83523 -0.73337,-1.39032 -1.99872,-4.39843 -1.99872,-4.75153 0,-0.18042 -0.31462,-0.64264 -0.69914,-1.02717 -0.59436,-0.59436 -6.61381,-0.69913 -40.16529,-0.69913 -42.33183,0 -40.86442,-0.0856 -40.86442,2.38312 0,0.54168 -0.22023,1.12098 -0.48939,1.28733 -0.26917,0.16636 -0.4894,0.81647 -0.4894,1.44471 0,0.62823 -0.33034,1.269 -0.73409,1.42394 -0.40375,0.15493 -0.73409,0.83917 -0.73409,1.52054 0,0.68137 -0.22023,1.23885 -0.48939,1.23885 -0.26917,0 -0.4894,0.53757 -0.4894,1.1946 0,0.65703 -0.22023,1.33071 -0.48939,1.49706 -0.26917,0.16636 -0.4894,0.84004 -0.4894,1.49707 0,0.65703 -0.22022,1.1946 -0.48939,1.1946 -0.26917,0 -0.4894,0.53757 -0.4894,1.1946 0,0.65704 -0.22022,1.33072 -0.48939,1.49707 -0.26917,0.16636 -0.48939,0.84004 -0.48939,1.49707 0,0.65703 -0.21025,1.1946 -0.46722,1.1946 -0.25697,0 -0.61182,0.7708 -0.78856,1.71288 -0.17673,0.94208 -0.51705,1.71288 -0.75627,1.71288 -0.239206,0 -0.434925,0.42746 -0.434925,0.9499 0,0.52245 -0.220227,1.08602 -0.489394,1.25237 -0.269167,0.16636 -0.489395,0.73291 -0.489395,1.25902 0,0.52609 -0.254612,1.44906 -0.565803,2.05104 -1.215014,2.35034 -1.391774,2.82668 -1.391774,3.75064 0,0.5261 -0.220227,1.09265 -0.489394,1.25901 -0.269167,0.16635 -0.489394,0.95015 -0.489394,1.74176 0,0.79162 -0.204097,1.4393 -0.453551,1.4393 -0.643568,0 -1.993421,2.86777 -1.993421,4.23504 0,0.63157 -0.220227,1.1483 -0.489394,1.1483 -0.269167,0 -0.489394,0.53757 -0.489394,1.1946 0,0.65703 -0.220228,1.33071 -0.489394,1.49707 -0.269167,0.16635 -0.489395,0.84003 -0.489395,1.49706 0,0.65703 -0.220227,1.1946 -0.489394,1.1946 -0.269167,0 -0.489394,0.66069 -0.489394,1.46819 0,0.8075 -0.220228,1.46818 -0.489395,1.46818 -0.269166,0 -0.489394,0.52701 -0.489394,1.17113 0,0.64412 -0.330341,1.29788 -0.734091,1.45282 -0.40375,0.15493 -0.734092,0.83917 -0.734092,1.52054 0,0.68137 -0.220227,1.23885 -0.489394,1.23885 -0.269167,0 -0.489394,0.53757 -0.489394,1.1946 0,0.65703 -0.220228,1.33071 -0.489394,1.49707 -0.269167,0.16635 -0.489395,0.84003 -0.489395,1.49706 0,0.65703 -0.220227,1.1946 -0.489394,1.1946 -0.269167,0 -0.489394,0.7708 -0.489394,1.71288 0,0.94209 -0.220228,1.71288 -0.489395,1.71288 -0.269166,0 -0.489394,0.44046 -0.489394,0.97879 0,0.53834 -0.205389,0.97879 -0.456414,0.97879 -0.25103,0 -0.595211,0.49551 -0.76485,1.10114 -0.331129,1.18214 -1.073481,3.02438 -1.772199,4.39791 -0.237763,0.46739 -0.432297,1.28024 -0.432297,1.80634 0,0.5261 -0.220227,1.09266 -0.489394,1.25901 -0.269167,0.16636 -0.489394,0.82704 -0.489394,1.46818 0,0.64115 -0.220228,1.30183 -0.489395,1.46819 -0.269166,0.16635 -0.489394,0.72992 -0.489394,1.25237 0,0.52244 -0.220227,0.9499 -0.489394,0.9499 -0.269167,0 -0.489394,0.7708 -0.489394,1.71288 0,1.04878 -0.238416,1.71288 -0.614935,1.71288 -0.595251,0 -1.832037,3.13345 -1.832037,4.64154 0,0.40799 -0.220227,0.7418 -0.489394,0.7418 -0.269167,0 -0.489394,0.53757 -0.489394,1.1946 0,0.65703 -0.220228,1.33071 -0.489395,1.49707 -0.269166,0.16635 -0.489394,0.84003 -0.489394,1.49706 0,0.65703 -0.220227,1.1946 -0.489394,1.1946 -0.269167,0 -0.489394,0.66069 -0.489394,1.46819 0,0.8075 -0.17973,1.46818 -0.3994,1.46818 -0.21967,0 -1.022645,1.43148 -1.784389,3.18106 -0.761743,1.74959 -1.573037,3.18107 -1.802874,3.18107 -0.229837,0 -0.417886,0.55056 -0.417886,1.22348 0,0.89722 -0.26101,1.22349 -0.978788,1.22349 -0.538334,0 -0.978789,0.22022 -0.978789,0.48939 0,0.26917 -0.330341,0.4894 -0.734091,0.4894 -0.403751,0 -0.734092,0.22022 -0.734092,0.48939 0,0.26917 -0.660682,0.48939 -1.468183,0.48939 -0.8075,0 -1.468182,0.22023 -1.468182,0.4894 0,0.26917 -0.978027,0.48939 -2.173392,0.48939 -1.195366,0 -2.3095,-0.22022 -2.475854,-0.48939 z"
         id="path17232" /></g></g></svg>
